<svg width="60" height="36" viewBox="0 0 60 36" fill="none" xmlns="http://www.w3.org/2000/svg">
<path d="M50.9685 14.2567C50.1805 9.18881 45.8082 5.29907 40.5469 5.29907C38.5676 5.29907 36.6656 5.84934 35.016 6.87571C32.5063 2.6374 27.9881 0 22.9688 0C15.2148 0 8.90625 6.33921 8.90625 14.1308C8.90625 14.1791 8.90625 14.2292 8.90801 14.2774C3.92461 15.1209 0 19.4868 0 24.729C0 30.5731 4.84816 35.3271 10.6641 35.3271H49.3359C55.1518 35.3271 60 30.5731 60 24.729C60 19.442 56.0119 15.0485 50.9685 14.2567V14.2567Z" fill="#00FFF0"/>
</svg>
