<svg width="50" height="50" viewBox="0 0 50 50" fill="none" xmlns="http://www.w3.org/2000/svg">
<path d="M7.29913 32.0388C7.01608 32.6034 7.12633 33.2858 7.57226 33.7321L7.93047 34.0903C8.96539 32.8639 10.1716 31.533 11.6345 30.0704C11.7379 29.967 11.8443 29.9171 11.9481 29.8217L9.64365 27.5168C8.30392 29.9399 7.52267 31.5955 7.29913 32.0388Z" fill="#00FFF0"/>
<path d="M19.9207 38.3567C18.4543 39.823 17.1268 41.0315 15.9072 42.0672L16.3925 42.5524C16.8426 43.0026 17.5315 43.1109 18.098 42.8195C18.8568 42.4285 20.05 41.8669 22.583 40.4563L20.1698 38.0431C20.0744 38.1472 20.0244 38.2533 19.9207 38.3567V38.3567Z" fill="#00FFF0"/>
<path d="M19.14 30.8532C18.0815 29.7946 15.1045 30.7437 13.706 32.1418C9.02766 36.8202 6.9147 40.137 5.96598 42.0955C5.69399 42.6566 5.80729 43.3284 6.24827 43.7694C6.69001 44.2115 7.36292 44.3237 7.92445 44.0517C9.83905 43.122 13.1155 41.019 17.8495 36.2853C19.3872 34.7469 20.146 31.8595 19.1412 30.8543L19.14 30.8532Z" fill="#00FFF0"/>
<path d="M4.57222 19.5029L0.429076 23.6461C-0.039369 24.1145 -0.135499 24.8397 0.19638 25.4142C0.520248 25.9811 1.1985 26.2698 1.84395 26.097C4.08318 25.4966 6.05347 25.2429 7.38023 25.5832C9.26774 22.2274 11.296 19.1382 13.4441 16.3321C12.2016 15.5356 8.09586 15.9793 4.57222 19.5029V19.5029Z" fill="#00FFF0"/>
<path d="M24.7944 49.8428C25.3586 50.1281 26.0418 50.0179 26.4885 49.5708L30.632 45.4276C33.8398 42.2191 34.4044 38.0794 33.6766 36.7667C30.547 39.1254 27.3766 41.117 24.4187 42.7844C24.6227 43.9368 24.4869 45.0549 24.0044 48.3203C23.9102 48.9524 24.2367 49.5639 24.7944 49.8428V49.8428Z" fill="#00FFF0"/>
<path d="M29.0823 14.6941C27.3691 16.4077 27.3691 19.1951 29.0823 20.9086C30.7958 22.6222 33.5836 22.6222 35.2972 20.9086C37.0107 19.1951 37.0107 16.4077 35.2972 14.6941C33.5836 12.9805 30.7958 12.9805 29.0823 14.6941Z" fill="#00FFF0"/>
<path d="M49.914 1.42886C49.8613 0.704448 49.2845 0.131862 48.5624 0.0776931C44.9648 -0.193151 41.3812 0.249355 37.8687 1.32357C38.133 3.73675 39.3812 6.3483 41.5121 8.47919C43.6685 10.6353 46.351 11.883 48.8073 12.1165C49.7534 8.80115 50.202 5.25043 49.914 1.42886V1.42886Z" fill="#00FFF0"/>
<path d="M39.4406 10.551C37.003 8.11338 35.5145 5.18979 35.0369 2.34326C26.2406 5.95082 17.82 13.8289 11.166 24.8962L14.4718 28.202C16.7305 27.2849 19.4725 27.0427 21.2117 28.7814C22.9531 30.5232 22.7063 33.2641 21.7896 35.5197L25.2041 38.9343C33.7193 33.8023 43.6329 25.7171 47.8486 14.96C44.9326 14.5194 41.9178 13.0282 39.4406 10.551V10.551ZM37.3684 22.9804C34.5131 25.8357 29.8664 25.8357 27.0108 22.9804C24.1551 20.1247 24.1551 15.4777 27.0108 12.6224C29.8664 9.76705 34.5131 9.76705 37.3684 12.6224C40.2241 15.478 40.2241 20.1247 37.3684 22.9804Z" fill="#00FFF0"/>
</svg>
