<svg width="50" height="50" fill="none" xmlns="http://www.w3.org/2000/svg"><path d="M7.3 32c-.3.6-.2 1.3.3 1.7l.3.4 3.7-4 .3-.3-2.3-2.3L7.3 32zM20 38.4a66.7 66.7 0 01-4 3.7l.4.5c.4.4 1.1.5 1.7.2l4.5-2.3-2.4-2.5-.3.4zM19.1 30.9c-1-1.1-4-.2-5.4 1.2a39 39 0 00-7.7 10 1.5 1.5 0 002 2c1.8-1 5.1-3 9.8-7.8 1.6-1.6 2.3-4.4 1.3-5.4zM4.6 19.5L.4 23.6a1.5 1.5 0 001.4 2.5 12 12 0 015.6-.5c1.9-3.4 3.9-6.5 6-9.3-1.2-.8-5.3-.3-8.8 3.2zM24.8 49.8c.6.3 1.2.2 1.7-.2l4.1-4.2c3.2-3.2 3.8-7.3 3-8.6a83.6 83.6 0 01-9.2 6 18 18 0 01-.4 5.5c0 .7.2 1.3.8 1.5zM29 14.7a4.4 4.4 0 106.3 6.2 4.4 4.4 0 00-6.2-6.2zM50 1.4C49.8.7 49.2.1 48.5.1a29 29 0 00-10.7 1.2c.2 2.4 1.5 5 3.6 7.2 2.2 2.1 4.9 3.4 7.3 3.6 1-3.3 1.4-6.8 1.1-10.7z" fill="#00FFF0"/><path d="M39.4 10.6C37 8 35.5 5.2 35 2.3A53.1 53.1 0 0011.2 25l3.3 3.3c2.2-1 5-1.2 6.7.6 1.8 1.7 1.5 4.5.6 6.7l3.4 3.4a53.2 53.2 0 0022.6-24c-2.9-.4-5.9-1.9-8.4-4.3zm-2 12.4A7.3 7.3 0 1127 12.6 7.3 7.3 0 0137.4 23z" fill="#00FFF0"/></svg>