<svg width="50" height="60" fill="none" xmlns="http://www.w3.org/2000/svg"><path d="M25 60h-.3C24.4 59.9 0 53.2 0 30.4V10c0-.5.3-1 .8-1.2L24.6.1c.2-.1.6-.1.8 0l23.8 8.7c.5.2.8.7.8 1.2v20.4C50 53.2 25.6 60 25.3 60H25zM2.5 10.9v19.5c0 19.8 19.6 26.2 22.5 27 2.9-.8 22.5-7.2 22.5-27V11L25 2.6 2.5 10.9z" fill="#00FFF0"/><path d="M32.8 40h-17c-3.9 0-7-3.3-7-7.3 0-3.6 2.6-6.7 6.1-7.1 1.1-4.7 5.3-8.1 10.1-8.1 3.8 0 7.3 2.1 9 5.4 4.1.6 7.3 4.2 7.3 8.5 0 4.7-3.8 8.6-8.5 8.6zM25 20a8 8 0 00-7.8 7c0 .5-.6 1-1.2 1a4.7 4.7 0 00-4.8 4.7c0 2.7 2.1 4.8 4.7 4.8h17a6 6 0 005.9-6 6 6 0 00-5.6-6.1c-.5 0-.9-.4-1-.8A7.9 7.9 0 0025 20z" fill="#00FFF0"/></svg>