<svg width="53" height="51" viewBox="0 0 53 51" fill="none" xmlns="http://www.w3.org/2000/svg">
<path d="M52.8618 19.1924C52.5149 18.1192 51.563 17.3569 50.4369 17.2554L35.1396 15.8664L29.0907 1.70829C28.6446 0.670679 27.6289 -0.000976562 26.5003 -0.000976562C25.3717 -0.000976562 24.3559 0.670679 23.9099 1.71071L17.8609 15.8664L2.56126 17.2554C1.43712 17.3594 0.487662 18.1192 0.138692 19.1924C-0.210278 20.2656 0.112003 21.4427 0.96239 22.1847L12.5253 32.3254L9.11567 47.3449C8.86617 48.4492 9.2948 49.5908 10.2111 50.2531C10.7036 50.609 11.2798 50.7901 11.8609 50.7901C12.3619 50.7901 12.8589 50.655 13.3049 50.3882L26.5003 42.5018L39.6908 50.3882C40.656 50.9688 41.8727 50.9159 42.787 50.2531C43.7037 49.5887 44.1319 48.4468 43.8824 47.3449L40.4728 32.3254L52.0357 22.1867C52.8861 21.4427 53.2108 20.2676 52.8618 19.1924V19.1924Z" fill="#FFC107"/>
</svg>
