<svg xmlns="http://www.w3.org/2000/svg" width="552" height="455"><defs><linearGradient id="Gradient-0" x1="-1" y1="5" x2="3.8" y2="-9.4"><stop offset="0" stop-color="#001b41"/><stop offset="0" stop-color="#031d43"/><stop offset="0" stop-color="#304665"/><stop offset=".1" stop-color="#596b83"/><stop offset=".1" stop-color="#7f8c9f"/><stop offset=".2" stop-color="#9faab8"/><stop offset=".2" stop-color="#bbc2cc"/><stop offset=".3" stop-color="#d1d6dc"/><stop offset=".4" stop-color="#e2e5e9"/><stop offset=".5" stop-color="#edeff2"/><stop offset=".6" stop-color="#f4f5f7"/><stop offset="1" stop-color="#f6f7f8"/></linearGradient><linearGradient id="Gradient-1" x1="-1.1" y1="5.1" x2="3.7" y2="-9.2"><stop offset="0" stop-color="#001b41"/><stop offset="0" stop-color="#031d43"/><stop offset="0" stop-color="#304665"/><stop offset=".1" stop-color="#596b83"/><stop offset=".1" stop-color="#7f8c9f"/><stop offset=".2" stop-color="#9faab8"/><stop offset=".2" stop-color="#bbc2cc"/><stop offset=".3" stop-color="#d1d6dc"/><stop offset=".4" stop-color="#e2e5e9"/><stop offset=".5" stop-color="#edeff2"/><stop offset=".6" stop-color="#f4f5f7"/><stop offset="1" stop-color="#f6f7f8"/></linearGradient><linearGradient id="Gradient-2" x1="0" y1=".5" x2="1" y2=".5"><stop offset="0" stop-color="#009190"/><stop offset="1" stop-color="#00ceb0"/></linearGradient><linearGradient id="Gradient-3" x1="0" y1=".5" x2="1" y2=".5"><stop offset="0" stop-color="#009190"/><stop offset="1" stop-color="#00ceb0"/></linearGradient><linearGradient id="Gradient-4" x1="0" y1=".5" x2="1" y2=".5"><stop offset="0" stop-color="#8c2de0"/><stop offset="0" stop-color="#ff9a9e"/><stop offset="1" stop-color="#fad0c4"/></linearGradient><linearGradient id="Gradient-5" x1="0" y1=".5" x2="1" y2=".5"><stop offset="0" stop-color="#8c2de0"/><stop offset="0" stop-color="#ff9a9e"/><stop offset="1" stop-color="#fad0c4"/></linearGradient><linearGradient id="Gradient-6" x1="0" y1=".5" x2="1" y2=".5"><stop offset="0" stop-color="#8c2de0"/><stop offset="0" stop-color="#ff9a9e"/><stop offset="1" stop-color="#fad0c4"/></linearGradient><mask id="Mask-4"><path id="_a0" fill="#fff" stroke="none" d="M34.5-75l2.3 191.5-70.4-41.1-2.1-190.2L34.5-75z" transform="translate(277.2 279.5)"/></mask><mask id="Mask-3"><path id="_a1" fill="#fff" stroke="none" d="M35.2 74.7l-68.4 40.8-2-190.5L33-115.4l2.1 190.1z" transform="translate(346 280)"/></mask><mask id="Mask-2"><path id="_a2" fill="#fff" stroke="none" d="M35-93.2L36.6 138l-70.2-44.5-5.6-227.7 74 41z" transform="translate(383.3 205.7)"/></mask><mask id="Mask-1"><path id="_a3" fill="#fff" stroke="none" d="M35.8 92.8l-69 41-2-227 68.4-40.1 2.6 226z" transform="translate(452.7 203.7)"/></mask></defs><g transform="matrix(1.09 0 0 1.09 9.2 5.5)"><path id="Path" d="M232.4 224l-60.6-35.3a12 12 0 00-12.3 0l-86.3 52a4.6 4.6 0 01-7-4V169" stroke="#95A0B0" stroke-width="1.86" opacity=".3" stroke-linecap="round" stroke-linejoin="round" fill="none" fill-rule="evenodd"/><g id="Group" opacity=".1" stroke="none" stroke-width="1" fill="none" fill-rule="evenodd" transform="matrix(.93 0 0 .93 97.9 267)"><path id="Path-6" d="M128.6 89.6c1.4 0 2.8-.3 4-1L153 77a2.5 2.5 0 000-4.7 9.2 9.2 0 00-8.1 0L124.5 84a3 3 0 00-1.7 2.4c0 1 .7 1.9 1.7 2.3 1.2.7 2.6 1 4 1z"/><path id="Path-7" d="M201.8 128.5l20.3-11.7c2.2-1.2 2.2-3.4 0-4.7a9 9 0 00-8.2 0L193.6 124c-2.2 1.3-2.3 3.3 0 4.7a9.2 9.2 0 008.2 0z"/><path id="Path-8" d="M243.4 132.4a3 3 0 012-2.4 9 9 0 014.5-.8c1.5 0 2.9.5 4 1.5 1 .6 1.2 1.7.8 2.6-.4.9 0 1.9 1.1 2.5a6 6 0 001.9.7c1.1.1 2.3 0 3.4-.3.9-.2 1.6-.8 2-1.6 1.1-2.2.4-4.7-1.9-6.7-2.3-1.9-5-3-8-3.4h-.9c-2-.4-3.9-.5-5.9-.3l-1.2.2c-2 .3-3.8.9-5.6 1.8-2 .8-3.7 2.4-4.7 4.4l-.2.7-.4 12.2c-.1 1.2-1 2.2-2.1 2.6-1.5.7-3.2 1-4.9.8-1.5 0-3-.6-4.2-1.5-.6-.5-1-1-1-1.8v-.9-.2c.5-.9 0-1.8-1-2.5-.6-.3-1.3-.5-2-.6-2.3-.3-4.6.4-5.3 1.8-1 2.4-.4 5 2 7 .6.5 1.2 1 1.8 1.3a23.6 23.6 0 0020.3.5c3.3-1.7 5.1-4 5.2-6.5l.3-11z" fill="#718095"/><path id="Shape" d="M208 132.1l20.2-11.7c5.7-3.3 5.7-8.6 0-11.8a22.7 22.7 0 00-20.4 0l-20.3 11.7c-5.7 3.3-5.6 8.6 0 11.8a22.8 22.8 0 0020.5 0zm-14.3-8.3l20.2-11.7a9 9 0 018.2 0c2.2 1.3 2.2 3.5 0 4.7l-20.3 11.8a9 9 0 01-8.2 0c-2.2-1.4-2.2-3.4 0-4.8z" fill="#718095" fill-rule="nonzero"/><path id="Path-9" d="M186.5 86.4c.5-1 0-2-1.1-2.6l-.7-.3a6.8 6.8 0 00-5.4.3l-.8.4-18.2 30.2c-.5 1 0 2 1 2.6l.9.3c1.7.7 3.7.6 5.4-.3l.7-.4 18.2-30.2z" fill="#718095"/><path id="Path-10" d="M202 97c1.8-1 1.8-2.5 0-3.5-1.9-1-4.2-1-6.1 0l-16.8 9.7-6.7 11L202 97z" fill="#718095"/><path id="Path-11" d="M144.6 103.8c-1.8 1-1.7 2.5 0 3.5 2 1 4.2 1 6.2 0l16.7-9.7 6.7-11-29.6 17.2z" fill="#718095"/><path id="Shape-2" d="M128.5 94.6a21 21 0 0010.3-2.4l20.3-11.7c2.7-1.6 4.2-3.7 4.2-6 0-2.2-1.5-4.3-4.2-6a20.7 20.7 0 00-10.3-2.4 21 21 0 00-10.3 2.5l-20.3 11.7c-2.8 1.6-4.3 3.7-4.3 6 0 2.2 1.5 4.3 4.3 5.9 3.2 1.6 6.7 2.5 10.3 2.4zm-4-10.7l20.3-11.7a9.2 9.2 0 018.1 0 2.5 2.5 0 010 4.7l-20.3 11.7a9.2 9.2 0 01-8.1 0 3 3 0 01-1.7-2.3c0-1 .7-2 1.7-2.4z" fill="#718095" fill-rule="nonzero"/><path id="Path-12" d="M133.1 56.8l.2-.2c1-1 .7-2.4-.8-3.3-2-1-4.6-1-6.7 0L91.8 73c-1.9 1.1-1.9 2.8 0 4a7.4 7.4 0 006.8 0l34-19.7.5-.3v-.1z" fill="#718095"/><path id="Shape-3" d="M62.6.6L.2 36.6l62.4 36 62.4-36L62.6.6zm0 70.9L2.2 36.6 62.6 1.8 123 36.6 62.6 71.5z" fill="#FFF" fill-rule="nonzero"/><path id="Shape-4" d="M2.2 36.6l60.4 34.9L123 36.6 62.6 1.8 2.2 36.6zM89 35.2l10.2 6-28.4 16.3-5.7-3.2L89 40.5 84.3 38l4.6-2.7zm-29-2.6c.7-3.4 1.3-4.3 3.4-5.5 3.5-2 9-1.8 13.2.6 4 2.3 4.1 5.4.5 7.5-2.6 1.5-5.6 2-11.7 1.7l-1.8 6.7a16.6 16.6 0 006.6-3.2l4.6 2.7-1.6 1c-3.1 2-6.7 3-10.4 3.3l-1.1 4.9L56 49l.4-1.7c-3.2 0-6.3-1-9-2.6-5.7-3.3-6.7-7.3-2-10.5 2.9-2 8.2-2.6 14.5-1.6zm-7.4-18.3l10.3 5.9-28.4 16.4-5.7-3.3 23.8-13.8L48 17l4.5-2.6z" fill="#718095" fill-rule="nonzero"/><path id="Path-13" d="M51.8 42.1c1.7 1 3.6 1.4 5.5 1.5l1.7-7.3c-4.1-.5-6.8-.1-8.3.8-2.2 1.4-1.7 3.4 1.1 5z" fill="#718095"/><path id="Path-14" d="M72.7 32.6c1.2-.7 1.2-1.7-.2-2.5s-3.1-.9-4.6-.1c-1.1.6-1.4 1.2-1.9 3.4 3.4.3 5.4 0 6.7-.8z" fill="#718095"/><path id="Path-15" fill="#FFF" d="M65 54.3l5.7 3.2 28.4-16.4-10.2-5.9-4.6 2.7 4.6 2.6z"/><path id="Shape-5" d="M47.4 44.7c2.7 1.6 5.8 2.5 9 2.6l-.4 1.8 5.6 3.2 1.2-4.9c3.6-.2 7.2-1.3 10.3-3.3.2 0 1-.6 1.7-1l-4.6-2.6-1.4 1c-1.8 1-4.4 2.1-5.2 2l1.8-6.6c6 .3 9.1-.2 11.7-1.7 3.6-2 3.4-5.2-.5-7.4-4.3-2.5-9.8-2.7-13.3-.7-2 1.2-2.6 2.2-3.4 5.5-6.3-1-11.5-.3-14.4 1.6-4.8 3.2-3.8 7.2 1.9 10.5zm25-14.6c1.5.8 1.5 1.8.3 2.5-1.3.8-3.3 1.1-6.6.8.4-2.2.8-2.7 2-3.4 1.3-.8 3-.7 4.4 0zM59 36.3l-1.7 7.3a12 12 0 01-5.5-1.5c-2.8-1.6-3.3-3.6-1-5 1.4-1 4.1-1.3 8.2-.8z" fill="#FFF" fill-rule="nonzero"/><path id="Path-16" fill="#FFF" d="M28.7 33.3l5.7 3.3 28.4-16.4-10.3-6L48 17l4.5 2.6z"/></g><path id="Path-17" d="M114 149L3.4 213c-1.5.8-2.6 0-2.6-2l.4-141c0-1.9 1-3.7 2.5-4.8L114.3 1.2c1.4-.8 2.6 0 2.6 2l-.4 140.9c0 2-1 3.8-2.5 5z" fill="#718095" opacity=".3" stroke="none" stroke-width="1" fill-rule="evenodd" transform="matrix(.93 0 0 .93 -.7 -.8)"/><path id="Path-18" d="M124.3 154.2L13.7 218.1c-1.4.8-2.6-.1-2.6-2l.4-141c0-1.9 1-3.7 2.6-4.9L124.7 6.4c1.4-.8 2.6 0 2.6 2l-.4 140.9c0 2-1 3.8-2.6 4.9z" fill="#003D8F" stroke="none" stroke-width="1" fill-rule="evenodd" transform="matrix(.93 0 0 .93 -.7 -.8)"/><path id="Path-19" fill="#001B41" opacity=".6" d="M120.1 100l-100 57.7v-79l100-57.6z" stroke="none" stroke-width="1" fill-rule="evenodd" transform="matrix(.93 0 0 .93 -.7 -.8)"/><path id="Path-20" fill="#001B41" opacity=".6" d="M69 174.1l-48.8 28.2v-42L69 132z" stroke="none" stroke-width="1" fill-rule="evenodd" transform="matrix(.93 0 0 .93 -.7 -.8)"/><path id="Path-21" fill="#001B41" opacity=".6" d="M120.1 144.6l-48.8 28.2v-42.1l48.8-28.2z" stroke="none" stroke-width="1" fill-rule="evenodd" transform="matrix(.93 0 0 .93 -.7 -.8)"/><ellipse id="Oval" fill="#28CCE8" opacity=".1" rx="18.3" ry="10.5" stroke="none" stroke-width="1" fill-rule="evenodd" fill-opacity="1" transform="rotate(-60 154.4 -12.4) scale(.93)"/><path id="Path-22" fill="#28CCE8" d="M40.3 171.5V170l13-7.5v1.7z" stroke="none" stroke-width="1" fill-rule="evenodd" transform="matrix(.93 0 0 .93 -.7 -.8)"/><ellipse id="Oval-2" fill="#28CCE8" opacity=".1" rx="18.3" ry="10.5" stroke="none" stroke-width="1" fill-rule="evenodd" transform="rotate(-60 154.2 40.5) scale(.93)"/><path id="Path-23" fill="#28CCE8" d="M102.6 134l-5.8 3.4v-6.6l-1.4.8v6.6l-5.8 3.3v1.7l5.8-3.3v6.6l1.4-.8V139l5.8-3.3z" stroke="none" stroke-width="1" fill-rule="evenodd" transform="matrix(.93 0 0 .93 -.7 -.8)"/><g id="Group-2" opacity=".3" stroke="none" stroke-width="1" fill="none" fill-rule="evenodd" transform="matrix(.93 0 0 .93 171.3 177.7)"><path id="Path-24" d="M132.6.8c-1.4-.7-3-.7-4.4 0L1.9 73.2a1.3 1.3 0 000 2.6l213.7 123a5 5 0 004.5 0L344 127a1.4 1.4 0 00.1-2.6L132.6.8z" fill="#718095"/><path id="Path-25" d="M132.6.8c-1.4-.7-3-.7-4.4 0L1.9 73.2a1.3 1.3 0 000 2.6l213.7 123a5 5 0 004.5 0L344 127a1.4 1.4 0 00.1-2.6L132.6.8z" stroke="#FFF" stroke-width=".5"/></g><path id="Path-26" d="M317.8 181.7c-1.4-.7-3-.7-4.4 0L187 254a1.3 1.3 0 000 2.5l213.7 123a5 5 0 004.5 0l124-71.6a1.4 1.4 0 00.1-2.6L317.8 181.7z" fill="#F6F7F8" stroke="none" stroke-width="1" fill-rule="evenodd" transform="matrix(.93 0 0 .93 -.7 -.8)"/><path id="Path-27" d="M294.8 168.1a4.6 4.6 0 00-4 0l-117.5 67.3a1.3 1.3 0 000 2.4L372 352.2c1.2.7 2.8.7 4 0l115.5-66.6a1.3 1.3 0 000-2.4l-196.8-115z" stroke="#FFF" stroke-width=".465" fill="none" fill-rule="evenodd"/><g id="Group-3" opacity=".7" fill="#001B41" stroke="none" stroke-width="1" fill-rule="evenodd" transform="matrix(.93 0 0 .93 223.4 189.8)"><path id="Path-28" d="M72.4 1A5 5 0 0068 1L1.4 40.4a1.4 1.4 0 000 2.6l67.3 38a5 5 0 004.5 0l66.5-39.3a1.4 1.4 0 000-2.6L72.4 1z"/></g><path id="Path-29" fill="url(#Gradient-0)" d="M312.1 200.7l69.3 39-68.5 40.5-69.2-39.2z" stroke="none" stroke-width="1" fill-rule="evenodd" transform="matrix(.93 0 0 .93 -.7 -.8)"/><path id="Path-30" fill="#CEF6FD" opacity=".9" d="M310 16.5l64 36-63.3 37.3-63.8-36z" stroke="none" stroke-width="1" fill-rule="evenodd" transform="translate(-21.4 99.1)"/><path id="Path-31" fill="#28CCE8" opacity=".8" d="M241.6 50.9l2 190.1 69.3 39.2L310.8 90z" stroke="none" stroke-width="1" fill-rule="evenodd" mask="url(#Mask-4)" transform="matrix(.93 0 0 .93 -.7 -.8)"/><path id="Path-32" fill="#0B9DCC" opacity=".8" d="M379.3 49.5l2 190.3-68.4 40.4-2.1-190.3z" stroke="none" stroke-width="1" fill-rule="evenodd" mask="url(#Mask-3)" transform="matrix(.93 0 0 .93 -.7 -.8)"/><path id="Path-33" d="M288.4 295.3c-.3-.2-.2-.3-.2-.4.1-.3.2-.5-.4-.9-.6-.3-1.3-.5-2-.5-.3 0-.7-.1-1-.3-.2-.2-.2-.2-.1-.4 0-.2.1-.5-.5-.9-.6-.3-1.3-.5-2-.5-.3 0-.7-.1-1-.3-.2-.1-.2-.2-.1-.4 0-.2.2-.5-.5-.8-.6-.3-1.3-.5-2-.6-.3 0-.6 0-1-.2-.2-.2-.2-.3-.1-.4 0-.3.2-.5-.5-.9-.6-.3-1.3-.5-2-.6-.3 0-.6 0-1-.2-.2-.2-.2-.3-.1-.4 0-.2.2-.5-.4-.9-.7-.3-1.4-.5-2-.5-.4 0-.7-.1-1-.3-.3-.1-.3-.2-.2-.4 0-.2.2-.5-.5-.8-.6-.4-1.3-.6-2-.6-.3 0-.7-.1-1-.3-.2-.1-.2-.2-.1-.4 0-.2.2-.5-.5-.8-.6-.3-1.3-.5-2-.6a3 3 0 01-.9-.2c-.2-.1-.1-.2 0-.4 0-.2.1-.5-.5-.8h-.1v-.1l-2-.6c-.4 0-.7 0-1-.2v-.3c0-.2.1-.5-.5-.9h-.1c-.7-.4-1.4-.6-2-.6l-1-.2c-.1-.2-.1-.3 0-.4 0-.2.1-.5-.5-.9h-.1c-.7-.4-1.3-.5-2-.6l-1-.2c-.1-.1 0-.2 0-.4s.2-.5-.5-.8l-.1-.1-.3-.1a7 7 0 00-1.6-.4c-.3 0-.6 0-1-.2-.2-.2-.2-.3-.1-.5 0-.2.2-.4-.5-.8-.6-.3-1.3-.5-2-.6-.3 0-.6 0-1-.2-.2-.2-.2-.3-.1-.4 0-.2.2-.5-.5-.9-.6-.3-1.3-.5-2-.6-.4 0-.7 0-1-.2-.3-.2-.2-.3-.2-.4.1-.2.2-.5-.4-.9-.6-.3-1.3-.5-2-.5-.3 0-.7-.1-1-.3-.2-.1-.2-.2-.1-.4 0-.2.1-.5-.5-.8-.6-.4-1.3-.5-2-.6-.3 0-.7-.1-1-.3-.2-.1-.2-.2-.1-.4 0-.2.2-.5-.5-.8-.6-.3-1.3-.5-2-.6-.3 0-.6 0-1-.2-.2-.2-.2-.3-.1-.4 0-.2.2-.5-.5-.9-.6-.3-1.3-.5-2-.5l-1-.3c-.2-.2-.2-.2-.1-.4 0-.2.2-.5-.5-.9-.4-.2-1-.2-1.4-.1-.5.1-.7.3-.4.5.3.1.2.2.2.4-.1.2-.2.5.4.9.6.3 1.3.4 2 .5.4 0 .7.1 1 .3.3.1.2.2.2.4-.1.2-.2.5.4.8.6.3 1.3.5 2 .6.4 0 .7 0 1 .2.3.2.2.3.2.4-.1.3-.2.5.4.9.6.3 1.3.5 2 .6.3 0 .7 0 1 .2.3.2.2.3.2.4-.1.2-.2.5.4.9.6.3 1.3.5 2 .5.3 0 .7.1 1 .3.2.1.2.2.1.4 0 .2-.2.5.5.8.6.3 1.3.5 2 .6.3 0 .6 0 1 .2.2.2.2.3.1.4 0 .3-.2.5.5.9.6.3 1.3.5 2 .6l1 .2c.3.2.2.3.2.5-.1.2-.2.4.4.8.6.3 1.3.5 2 .6.3 0 .6 0 .9.2l.1.1v.2c0 .2-.2.5.4.9h.2c.6.4 1.3.6 2 .6l.9.2c.2.2.2.3 0 .4 0 .2 0 .5.5.9h.1c.7.4 1.4.5 2 .6l1 .2c.2.1.1.2 0 .4 0 .2-.1.5.5.8h.1v.1l2 .6c.4 0 .7 0 1 .2.2.1.1.2 0 .4 0 .2-.1.4.5.8h.2l.2.2 1.6.4c.3 0 .7 0 1 .2.3.2.2.3.2.4-.1.2-.2.5.4.9.6.3 1.3.5 2 .5.3 0 .7.1 1 .3.2.1.2.2.1.4 0 .2-.2.5.5.8.7.4 1.3.6 2 .6.4 0 .7.1 1 .3.3.1.2.2.2.4s-.2.5.4.8c.7.4 1.3.5 2 .6.4 0 .7.1 1 .3.3.1.2.2.2.4-.1.2-.2.5.4.8.6.3 1.3.5 2 .6.4 0 .7 0 1 .2.3.2.2.3.2.4-.1.2-.2.5.4.9.6.3 1.3.5 2 .5.3 0 .7.1 1 .3.3.1.2.2.2.4-.1.2-.2.5.4.9.6.3 1.3.4 2 .5.3 0 .7.1 1 .3.2.1.2.2.1.4 0 .2-.2.5.5.8l.4.1h1c.5 0 .7-.3.4-.4z" fill="#718095" opacity=".4" stroke="none" stroke-width="1" fill-rule="evenodd" transform="matrix(.93 0 0 .93 -.7 -.8)"/><path id="Path-34" d="M262.1 274l-.9-.2c-.2-.2-.2-.3-.1-.4 0-.2.2-.5-.4-.9h-.1-.1c-.6-.4-1.3-.6-2-.6a3 3 0 01-.9-.2c-.2-.1-.1-.2 0-.4 0-.2.1-.5-.5-.8h-.1l-.1-.1-.2-.1a7 7 0 00-1.6-.4c-.4 0-.7 0-1-.2-.3-.2-.2-.3-.2-.5.1-.2.2-.4-.4-.8-.6-.3-1.3-.5-2-.6-.4 0-.7 0-1-.2-.3-.2-.2-.3-.2-.4.1-.2.2-.5-.4-.9l-2-.6c-.4 0-.7 0-1-.2-.3-.2-.3-.3-.2-.4 0-.2.2-.5-.4-.9-.7-.3-1.4-.5-2-.5-.4 0-.7-.1-1-.3-.3-.1-.3-.2-.2-.4 0-.2.2-.5-.4-.8-.7-.4-1.3-.5-2-.6-.4 0-.7-.1-1-.3-.3-.1-.2-.2-.2-.4.1-.2.2-.5-.4-.8-.7-.3-1.3-.5-2-.6-.4 0-.7 0-1-.2-.3-.2-.2-.3-.2-.4.1-.2.2-.5-.4-.9-.6-.3-1.3-.5-2-.5-.4 0-.7-.1-1-.3-.3-.2-.2-.2-.2-.4.1-.2.2-.5-.4-.9-.5-.2-1-.2-1.5-.1s-.6.3-.4.5c.3.1.3.2.2.4 0 .2-.2.5.5.9.6.3 1.3.4 2 .5l1 .3c.2.1.2.2.1.4 0 .2-.2.5.5.8.6.3 1.3.5 2 .6.3 0 .6 0 1 .2.2.2.2.3.1.4 0 .3-.2.5.5.9.6.3 1.3.5 2 .6.3 0 .6 0 1 .2.2.2.2.3.1.4 0 .2-.2.5.4.9.7.3 1.3.5 2 .5.4 0 .7.1 1 .3.3.1.2.2.2.4s-.2.5.4.8c.6.3 1.3.5 2 .6.4 0 .7 0 1 .2.3.2.2.3.2.4-.1.3-.2.5.4.9l2 .6 1 .2c.3.2.3.3.2.5 0 .2-.2.4.5.8.6.3 1.3.5 2 .6.3 0 .6 0 .8.2l.2.1v.2c-.1.2-.2.5.4.9h.1c.7.4 1.4.6 2 .6l1 .2a.2.2 0 010 .4c0 .2-.1.5.5.9h.1c.7.4 1.3.5 2 .6" fill="#718095" opacity=".8" stroke="none" stroke-width="1" fill-rule="evenodd" transform="matrix(.93 0 0 .93 -.7 -.8)"/><g id="Group-4" opacity=".7" fill="#001B41" stroke="none" stroke-width="1" fill-rule="evenodd" transform="matrix(.93 0 0 .93 323 243.8)"><path id="Path-35" d="M72.6 1.3a5 5 0 00-4.4 0L1.6 40.6a1.4 1.4 0 000 2.6l67.3 38a5 5 0 004.5 0l66.5-39.3a1.4 1.4 0 000-2.6l-67.3-38z"/></g><path id="Path-36" fill="url(#Gradient-1)" d="M418.3 259l69.2 39-68.5 40.5-69.2-39.2z" stroke="none" stroke-width="1" fill-rule="evenodd" transform="matrix(.93 0 0 .93 -.7 -.8)"/><path id="Bar_2_C" fill="#7DEAE7" opacity=".9" d="M415.4 39l64.4 36.4-63.7 37.6-64.4-36.4z" stroke="none" stroke-width="1" fill-rule="evenodd" transform="translate(-29.8 -9.8)"/><path id="Bar_2_A" fill="url(#Gradient-2)" opacity=".8" d="M345.6 71l4.2 228.3 69.2 39.2-2.1-226.4z" stroke="none" stroke-width="1" fill-rule="evenodd" mask="url(#Mask-2)" transform="matrix(.93 0 0 .93 -.7 -.8)"/><path id="Bar_2_B" fill="url(#Gradient-3)" opacity=".9" d="M485.4 70.8l2.1 227.3-68.5 40.4-2.1-227.3z" stroke="none" stroke-width="1" fill-rule="evenodd" mask="url(#Mask-1)" transform="matrix(.93 0 0 .93 -1.2 -.1)"/><path id="Path-37" d="M393.2 353.4c-.3-.2-.3-.3-.2-.4 0-.2.2-.5-.5-.9-.6-.3-1.3-.5-2-.5l-1-.3c-.2-.1-.2-.2-.1-.4 0-.2.2-.5-.4-.8-.7-.3-1.3-.5-2-.6l-1-.2c-.3-.2-.3-.3-.2-.5 0-.2.2-.4-.4-.8-.6-.3-1.3-.5-2-.6-.4 0-.7 0-1-.2-.3-.2-.2-.3-.2-.4.1-.2.2-.5-.4-.9-.6-.3-1.3-.5-2-.5-.4 0-.7-.1-1-.3-.3-.1-.2-.2-.2-.4.1-.2.2-.5-.4-.8-.6-.4-1.3-.5-2-.6-.3 0-.7-.1-1-.3-.3-.1-.2-.2-.2-.4.1-.2.2-.5-.4-.8-.7-.4-1.4-.6-2-.6-.4 0-.7-.1-1-.3-.3-.1-.3-.2-.2-.4 0-.2.2-.5-.4-.8-.7-.3-1.3-.5-2-.6-.3 0-.6 0-1-.2-.1-.1-.1-.2 0-.4 0-.2.1-.4-.5-.8h-.1c-.6-.4-1.3-.6-2-.6l-1-.3v-.3c0-.2.2-.5-.5-.9h-.1c-.6-.4-1.3-.6-2-.6l-.9-.2c-.2-.2-.2-.2-.1-.4 0-.2.2-.5-.4-.8h-.1l-.1-.1c-.6-.3-1.3-.5-2-.6-.3 0-.6 0-.9-.2-.2-.1-.2-.2-.1-.4 0-.2.2-.5-.4-.8h-.1l-.1-.1-.2-.1a7 7 0 00-1.6-.4c-.4 0-.7 0-1-.2-.3-.2-.2-.3-.2-.4.1-.2.2-.5-.4-.9-.6-.3-1.3-.5-2-.5-.4 0-.7-.1-1-.3-.3-.2-.2-.2-.2-.4.1-.2.2-.5-.4-.9-.7-.3-1.4-.5-2-.5-.4 0-.7-.1-1-.3-.3-.2-.3-.2-.2-.4 0-.2.2-.5-.5-.9-.6-.3-1.3-.5-2-.5l-1-.3c-.2-.1-.2-.2-.1-.4 0-.2.2-.5-.4-.8-.7-.3-1.3-.5-2-.6-.4 0-.7 0-1-.2-.3-.2-.3-.3-.2-.4 0-.3.2-.5-.4-.9-.7-.3-1.3-.5-2-.5-.4 0-.7-.2-1-.3-.3-.2-.2-.3-.2-.4.1-.2.2-.5-.4-.9-.6-.3-1.3-.5-2-.5-.4 0-.7-.1-1-.3-.3-.1-.2-.2-.2-.4.1-.2.2-.5-.4-.8-.5-.2-1-.3-1.5-.2-.5.1-.7.3-.4.5.3.2.3.3.2.4 0 .2-.2.5.5.9.6.3 1.3.5 2 .5l1 .3c.2.1.2.2.1.4 0 .2-.2.5.5.9.6.3 1.3.4 2 .5l1 .3c.2.1.2.2.1.4 0 .2-.2.5.4.8l2 .6c.4 0 .7 0 1 .2.3.2.3.3.2.4 0 .2-.2.5.4.9.7.3 1.3.5 2 .5.4 0 .7.1 1 .3.3.2.2.2.2.4-.1.2-.2.5.4.9.6.3 1.3.5 2 .5.4 0 .7.1 1 .3.3.1.2.2.2.4-.1.2-.2.5.4.8.7.4 1.4.6 2 .6.4 0 .7.1 1 .3.3.1.3.2.2.4 0 .2-.2.5.4.8l2 .6c.4 0 .6 0 1 .2v.4c0 .2-.2.4.5.8l.1.1c.7.3 1.3.5 2 .6.3 0 .6 0 1 .2v.3c0 .2-.2.5.5.9h.1c.7.4 1.3.6 2 .6l1 .2c.1.2 0 .3 0 .4 0 .2-.2.5.5.9h.1c.6.3 1.3.5 2 .6.3 0 .6 0 1 .2v.4c0 .2-.2.5.4.8h.1v.1h.3c.5.3 1 .4 1.6.5.4 0 .7 0 1 .2.3.2.3.3.2.4 0 .2-.2.5.4.9.7.3 1.3.5 2 .5.4 0 .7.1 1 .3.3.2.2.2.2.4-.1.2-.2.5.4.9.7.3 1.4.5 2 .5.4 0 .7.2 1 .3.3.2.3.3.2.4 0 .2-.2.5.5.9.6.3 1.3.5 2 .5l1 .3c.2.1.2.2.1.4 0 .2-.2.5.5.8.6.3 1.3.5 2 .6.3 0 .6 0 1 .2.2.2.2.3.1.5 0 .2-.2.4.4.8.7.3 1.3.5 2 .6.4 0 .7 0 1 .2.3.2.3.3.2.4 0 .2-.2.5.4.9.7.3 1.3.5 2 .5.4 0 .7.1 1 .3.3.1.2.2.2.4-.1.2-.2.5.4.8l.4.2h1c.6-.1.7-.3.5-.5z" fill="#718095" opacity=".4" stroke="none" stroke-width="1" fill-rule="evenodd" transform="matrix(.93 0 0 .93 -.7 -.8)"/><path id="Path-38" d="M366.8 332l-.8-.1-.2-.4c.1-.2.2-.5-.4-.8l-.1-.1-2-.6c-.4 0-.7 0-1-.2-.1-.1-.1-.2 0-.4 0-.2.1-.5-.5-.8l-.2-.1-.2-.1a7 7 0 00-1.6-.4c-.3 0-.7 0-1-.2-.2-.2-.2-.3-.1-.4 0-.2.2-.5-.5-.9-.6-.3-1.3-.5-2-.5l-1-.3c-.2-.2-.2-.2-.1-.4 0-.2.2-.5-.5-.9-.6-.3-1.3-.5-2-.5-.4 0-.7-.1-1-.3-.3-.2-.2-.2-.2-.4.1-.2.2-.5-.4-.9-.6-.3-1.3-.5-2-.5-.3 0-.7-.1-1-.3-.3-.1-.2-.2-.2-.4.1-.2.2-.5-.4-.8-.6-.3-1.3-.5-2-.6-.3 0-.7 0-1-.2-.2-.2-.2-.3-.1-.4 0-.3.2-.5-.5-.9-.6-.3-1.3-.5-2-.6-.3 0-.7 0-1-.2-.2-.2-.2-.3-.1-.4 0-.2.2-.5-.5-.9-.6-.3-1.3-.5-2-.5l-1-.3c-.2-.1-.2-.2-.1-.4 0-.2.2-.5-.5-.8-.4-.2-1-.3-1.4-.2-.5.1-.7.3-.4.5.3.2.2.3.2.4-.1.2-.2.5.4.9.6.3 1.3.5 2 .5.4 0 .7.1 1 .3.3.1.2.2.2.4-.1.2-.2.5.4.8.6.4 1.3.5 2 .6.3 0 .7.1 1 .3.3.1.2.2.2.4-.1.2-.2.5.4.8.6.3 1.3.5 2 .6.3 0 .7 0 1 .2.2.2.2.3.1.4 0 .2-.1.5.5.9.6.3 1.3.5 2 .5.3 0 .7.1 1 .3.2.2.2.2.1.4 0 .2-.2.5.5.9.6.3 1.3.4 2 .5l1 .3c.2.1.2.2.1.4 0 .2-.2.5.5.8.6.4 1.3.6 2 .6.3 0 .7.1 1 .3.3.1.2.2.2.4-.1.2-.2.5.4.8.6.3 1.3.5 2 .6.3 0 .6 0 .9.2l.1.1v.3c0 .2-.2.4.4.8h.1v.1l2 .6c.4 0 .7 0 1 .2.2 0 .1.2 0 .3 0 .2-.1.5.5.9h.1c.7.4 1.4.6 2 .6" fill="#718095" opacity=".8" stroke="none" stroke-width="1" fill-rule="evenodd" transform="matrix(.93 0 0 .93 -.7 -.8)"/><path id="Path-39" d="M141.6 353.4v-10.6c0-2-7.2-3.5-7.2-3.5l-11.9 12.1s3.3 2.7 5.3 2c2-.7 6.7-5 8-5.7.9-.3 1.9-.3 2.8 0l-.3 5.8h3.3z" fill="#718095" stroke="none" stroke-width="1" fill-rule="evenodd" transform="matrix(.93 0 0 .93 -.7 -.8)"/><path id="Path-40" d="M171 354.3v-10.2c0-2-8.4-3.2-8.4-3.2l-9.9 11.5s3.2 2.6 5 2c1.9-.7 6.5-5 7.7-5.6.9-.3 1.8-.3 2.7 0l-.3 5.6h3.2z" fill="#718095" stroke="none" stroke-width="1" fill-rule="evenodd" transform="matrix(.93 0 0 .93 -.7 -.8)"/><path id="Path-41" fill="#001B41" d="M150.6 233.9v47.4l3.7 64 20.8-2.6-.5-115.1z" stroke="none" stroke-width="1" fill-rule="evenodd" transform="matrix(.93 0 0 .93 -.7 -.8)"/><path id="Path-42" d="M132 227l-8.8 54.5 3.2 61.2s15.2 3.7 17.5.5c2.2-3.1-1-55.5-1-55.5l23.5-55.5-34.3-5.1z" fill="#263D5D" stroke="none" stroke-width="1" fill-rule="evenodd" transform="matrix(.93 0 0 .93 -.7 -.8)"/><path id="Path-43" d="M136.3 120s-1.5 24 9 21.9c10.6-2.2 15.1-12.5 15.1-12.5s-1.7-15.1-6.8-14.9c-5.1.3-16.6 3.1-17.3 5.5z" fill="#CE9C76" stroke="none" stroke-width="1" fill-rule="evenodd" transform="matrix(.93 0 0 .93 -.7 -.8)"/><path id="Path-44" d="M149 140l-.4 7.1 9.3.3s-2.3-8.9-1.5-12c.8-3.1-7.3 4.7-7.3 4.7z" fill="#AD7957" stroke="none" stroke-width="1" fill-rule="evenodd" transform="matrix(.93 0 0 .93 -.7 -.8)"/><path id="Path-45" d="M168.8 162.5s-31.1 6.7-33.8 4.2c-9-8.3-22-23.4-24.5-24.5-2.7-1.3-10.2-5.9-3.2-7.7 3.2-.6 6.5.4 8.7 2.8.9 1 3 4 4.1 5 8.3 7.5 13 13.6 19 14.4 9 1 32.6-2.8 33-.8.4 2.1-3.3 6.6-3.3 6.6z" fill="#D3A784" stroke="none" stroke-width="1" fill-rule="evenodd" transform="matrix(.93 0 0 .93 -.7 -.8)"/><path id="Path-46" d="M124.5 146c-.5-.5-2.2-1.3-2.6-1-1.6 1.4-3.2 6.4-1.8 7.3 1.8 1.3 11.8 13 12.8 14s6.7 3.5 7 3.7l21.8 12.7 3.6-5.5s-34.6-24.2-36-26.2l-4.8-5z" fill="url(#Gradient-4)" stroke="none" stroke-width="1" fill-rule="evenodd" transform="matrix(.93 0 0 .93 -.7 -.8)"/><path id="Path-47" d="M176.5 227.9c-20.8 19.4-50.2 9.1-50.2 9.1l4-10.6c6-9.4 5.3-51 3.6-54.8-5.2-11.4-2-17.8 0-21 4.7-8 28.2-5.3 31.9-4.2 7.3 2.2 9.9 15.8 7 25.7a41 41 0 001.3 29.3c3.6 6.8 6.1 23 2.4 26.5z" fill="url(#Gradient-5)" stroke="none" stroke-width="1" fill-rule="evenodd" transform="matrix(.93 0 0 .93 -.7 -.8)"/><path id="Path-48" d="M133.3 163.4c-5-13.1 6.9-16.3 7.9-4.7.4 5 2.4 17 0 25.9-1.2 3.8-4.6 18-9.7 23.2-2 2-8 10-9.4 13-1.3 3.2-1 10.7-3.6 11.6-2.5 1-8.1-.1-7.6-3.5.6-3.3 3.2-7.5 6.5-10.7a92 92 0 0011.6-19c5.2-12.2 6.8-29.2 4.3-35.8z" fill="#D3A784" stroke="none" stroke-width="1" fill-rule="evenodd" transform="matrix(.93 0 0 .93 -.7 -.8)"/><path id="Path-49" d="M133.3 152s-4 6.4.4 16.3c0 0 1.1 15.7-4.5 29.2l-6 12s2.7 5.1 4.1 4c6.7-7 11.3-15.6 13.5-25 0 0 4.5-8.7.7-31.8 0 0-2.5-9.3-8.2-4.6z" fill="url(#Gradient-6)" stroke="none" stroke-width="1" fill-rule="evenodd" transform="matrix(.93 0 0 .93 -.7 -.8)"/><path id="Path-50" d="M132.8 118.7s.5 4 4.8 2.1l1.8.9c1.5 1 1.1-1 1.1-1 .8-.1 1.5.4 1.6 1.2.4 1.3.8 5.2 2.8 5.4l1.3-3s4.5 1.3 2.8 4.8c-1.8 3.5 2.4 10.6 2.4 10.6s1.1 1.8 2 1.4c.5-.3 1.2-.2 1.7.1.8.7 2 1 3 .7 3-.6 1.1-1.6 1.1-1.6s2.5 3 4.8 2.4c1.3-.2 2.4-1 3-2.2 0 0 3.5.2 2.2-5.5 0 0 4.2-3.2.4-6.2 0 0 4.3-1.3 3.1-5.4 0 0 4.9-8.9-2-11.5 0 0-.8-4-3.5-5.7a5 5 0 00-4.6-1.5s-6.4-7.7-11.7-3c0 0-3.4-3-7-.1l-1.6 1.5s-3.7-1.7-5.6 1c-2 2.7-2.5 2.2-3.5 2.3-1.6.2-3.3 1.5-3.1 5.5 0 2.7-.4 4.3.3 5.4.7.6 1.5 1.1 2.4 1.4z" fill="#181A41" stroke="none" stroke-width="1" fill-rule="evenodd" transform="matrix(.93 0 0 .93 -.7 -.8)"/><path class="cls-5" d="M44 121.6l-17 9.8v-8.5l17-9.8v8.5z" fill="#11c7e6"/><path class="cls-6" d="M63.7 110.2l-17 9.8v-8.5l17-9.8v8.5z" fill="#11c7e6"/><path class="cls-7" d="M63.7 96.3l-17 9.7v-8.5l17-9.8v8.6z" fill="#11c7e6"/><path id="_a4" class="cls-8" d="M101.7 129.6l-20.2 11.7v-10.2l20.2-11.7v10.2z" fill="#11c7e6" opacity="1" fill-opacity=".3" transform="matrix(.837 0 0 .837 -1.6 -9.7)"/><path id="_a5" class="cls-9" d="M101.7 112.9l-20.2 11.7v-10.2l20.2-11.7V113z" fill="#11c7e6" opacity="1" fill-opacity=".3" transform="matrix(.837 0 0 .837 -1.6 -9.7)"/><path id="_a6" class="cls-10" d="M101.7 95.8l-20.2 11.7V97.3l20.2-11.7v10.2z" fill="#11c7e6" opacity="1" fill-opacity=".3" transform="matrix(.837 0 0 .837 -1.6 -9.7)"/><path class="cls-11" d="M103.8 87l-17 9.9v-8.5l17-9.8V87z" fill="#11c7e6" opacity=".3"/><path class="cls-12" d="M103.8 73.1l-17 9.8v-8.5l17-9.8V73z" fill="#11c7e6" opacity=".3"/><path class="cls-13" d="M103.8 58.8l-17 9.8v-8.5l17-9.8v8.5z" fill="#11c7e6" opacity=".3"/><path class="cls-14" d="M103.8 44.5l-17 9.8v-8.5l17-9.8v8.5z" fill="#11c7e6" opacity=".3"/></g><script><![CDATA[/*
 KeyshapeJS v1.0.0 (c) 2018 Pixofield Ltd | pixofield.com/keyshapejs/mit-license */
window.KeyshapeJS=function(){function A(a){return"undefined"!==typeof a}function v(a,b){return a&&0==a.indexOf(b)}function H(a){if(!isFinite(a))throw Error("Non-finite value");}function Q(a){if(14>=a)return 16;var b=R[a];b||(b=A(ba[a])?0|(a.toLowerCase().indexOf("color")==a.length-5?48:0):1);return b}function J(a){return 0<=a?Math.pow(a,1/3):-Math.pow(-a,1/3)}function ca(a,b,c,d){if(0==a)return 0==b?b=-d/c:(a=Math.sqrt(c*c-4*b*d),d=(-c+a)/(2*b),0<=d&&1>=d?b=d:(d=(-c-a)/(2*b),b=0<=d&&1>=d?d:0)),b;
var e=c/a-b*b/(a*a)/3;c=b*b*b/(a*a*a)/13.5-b*c/(a*a)/3+d/a;var n=c*c/4+e*e*e/27;b=-b/(3*a);if(0>=n){if(0==e&&0==c)return-J(d/a);a=Math.sqrt(c*c/4-n);d=Math.acos(-c/2/a);c=Math.cos(d/3);d=Math.sqrt(3)*Math.sin(d/3);a=J(a);e=2*a*c+b;if(0<=e&&1>=e)return e;e=-a*(c+d)+b;if(0<=e&&1>=e)return e;e=a*(d-c)+b;if(0<=e&&1>=e)return e}else{a=J(-c/2+Math.sqrt(n));c=J(-c/2-Math.sqrt(n));d=a+c+b;if(0<=d&&1>=d)return d;d=-(a+c)/2+b;if(0<=d&&1>=d)return d}return 0}function da(a,b){if(48==a&&"number"===typeof b)return"#"+
("000000"+b.toString(16)).substr(-6);if(64==a)return b=b.map(function(a){return a+"px"}),b.join(",");if(96==a){a="";for(var c=b.length,d=0;d<c;d+=2)a+=b[d],a+=b[d+1].join(",");return a}if(80==a){if(0==b[0])return"none";a="";c=b.length;for(d=0;d<c;)a+=S[b[d]],1==b[d]?a+="("+b[d+1]+") ":5==b[d]?(a+="("+b[d+1]+"px "+b[d+2]+"px "+b[d+3]+"px rgba("+(b[d+4]>>>24)+","+(b[d+4]>>16&255)+","+(b[d+4]>>8&255)+","+(b[d+4]&255)/255+")) ",d+=3):a=2==b[d]?a+("("+b[d+1]+"px) "):7==b[d]?a+("("+b[d+1]+"deg) "):a+("("+
(0>b[d+1]?0:b[d+1])+") "),d+=2;return a}return 32==a?b+"px":b}function w(a){return 0>=a?0:255<=a?255:a}function ea(a,b,c,d){if(16==a||32==a)return(c-b)*d+b;if(0==a)return.5>d?b:c;if(48==a){if("number"===typeof b&&"number"===typeof c){var e=1-d;return w(e*(b>>16)+d*(c>>16))<<16|w(e*(b>>8&255)+d*(c>>8&255))<<8|w(e*(b&255)+d*(c&255))}return.5>d?b:c}if(64==a){0==b.length&&(b=[0]);0==c.length&&(c=[0]);var n=b.length;b.length!=c.length&&(n=b.length*c.length);var k=[];for(a=0;a<n;++a){var f=b[a%b.length];
var h=(c[a%c.length]-f)*d+f;0>h&&(h=0);k.push(h)}return k}if(96==a){if(b.length!=c.length)return.5>d?b:c;n=b.length;k=[];for(a=0;a<n;a+=2){if(b[a]!==c[a])return.5>d?b:c;k[a]=b[a];k[a+1]=[];for(f=0;f<b[a+1].length;++f)k[a+1].push((c[a+1][f]-b[a+1][f])*d+b[a+1][f])}return k}if(80==a){n=b.length;if(n!=c.length)return.5>d?b:c;k=[];for(a=0;a<n;){if(b[a]!=c[a]||1==b[a])return.5>d?b:c;k[a]=b[a];k[a+1]=(c[a+1]-b[a+1])*d+b[a+1];if(5==b[a]){k[a+2]=(c[a+2]-b[a+2])*d+b[a+2];k[a+3]=(c[a+3]-b[a+3])*d+b[a+3];e=
1-d;var g=b[a+4],q=c[a+4];h=e*(g>>>24)+d*(q>>>24);var m=e*(g>>16&255)+d*(q>>16&255);f=e*(g>>8&255)+d*(q>>8&255);k[a+4]=(w(m)<<16|w(f)<<8|w(e*(g&255)+d*(q&255)))+16777216*(w(h)|0);a+=3}a+=2}return k}return 0}function T(a,b){a:{var c=a+b[2];var d=b[4].length;for(var e=0;e<d;++e)if(c<b[4][e]){c=e;break a}c=d-1}d=b[2];e=b[4][c-1]-d;a=(a-e)/(b[4][c]-d-e);if(b[6]&&b[6].length>c-1)if(d=b[6][c-1],1==d[0])if(0>=a)a=0;else if(1<=a)a=1;else{e=d[1];var n=d[3];a=ca(3*e-3*n+1,-6*e+3*n,3*e,-a);a=3*a*(1-a)*(1-a)*
d[2]+3*a*a*(1-a)*d[4]+a*a*a}else 2==d[0]?(d=d[1],a=Math.ceil(a*d)/d):3==d[0]&&(d=d[1],a=Math.floor(a*d)/d);return ea(b[1]&240,b[5][c-1],b[5][c],a)}function K(){x||(u=(new Date).getTime()+U)}function N(a){if(a||!C){for(var b=!1,c=0;c<t.length;++c)t[c].I(a)&&(b=!0);if(a)for(;0<F.length;)if(a=F.shift(),c=a[0],1==a[1])c.onfinish&&(c.onfinish(),b=!0),c.H();else if(2==a[1]&&c.onloop)c.onloop();return b}}function V(){K();N(!0)&&!x?(C=!0,L(V)):C=!1}function M(){C||(C=!0,L(V))}function W(a,b){var c=[];a.split(b).forEach(function(a){c.push(parseFloat(a))});
return c}function y(a){-1==a.indexOf(",")&&(a=a.replace(" ",","));return W(a,",")}function X(a){a._ks||(a._ks={});if(!a._ks.transform){for(var b=a._ks.transform=[],c=0;14>=c;++c)b[c]=0;b[10]=1;b[11]=1;if(a=a.getAttribute("transform")){a=a.trim().split(") ");for(c=a.length-2;0<=c;--c)if(v(a[c],"translate(")){for(var d=0;d<c;d++)a.shift();break}c=a.shift();v(c,"translate(")&&(c=y(c.substring(10)),b[1]=c[0],b[2]=A(c[1])?c[1]:0,c=a.shift());v(c,"rotate(")&&(c=y(c.substring(7)),b[6]=c[0],c=a.shift());
v(c,"skewX(")&&(c=y(c.substring(6)),b[7]=c[0],c=a.shift());v(c,"skewY(")&&(c=y(c.substring(6)),b[8]=c[0],c=a.shift());v(c,"scale(")&&(c=y(c.substring(6)),b[10]=c[0],b[11]=A(c[1])?c[1]:0,c=a.shift());v(c,"translate(")&&(c=y(c.substring(10)),b[13]=c[0],b[14]=A(c[1])?c[1]:0)}}}function Y(a){this.D=a;this.B=[];this.w=[];this.s=0;this.o=this.a=this.c=null;this.h=this.f=this.g=0;this.b=1;this.i=this.C=this.m=!1}function I(a,b,c){b=a[b];void 0===b&&(b=a[c]);return b}function fa(a){return Array.isArray(a)?
a:v(a,"cubic-bezier(")?(a=a.substring(13,a.length-1).split(","),[1,parseFloat(a[0]),parseFloat(a[1]),parseFloat(a[2]),parseFloat(a[3])]):v(a,"steps(")?(a=a.substring(6,a.length-1).split(","),[a[1]&&"start"==a[1].trim()?2:3,parseFloat(a[0])]):[0]}function ha(a){a=a.trim();return v(a,"#")?(parseInt(a.substring(1),16)<<8)+255:v(a,"rgba(")?(a=a.substring(5,a.length-1),a=a.split(","),(parseInt(a[0],10)<<24)+(parseInt(a[1],10)<<16)+(parseInt(a[2],10)<<8)+255*parseFloat(a[3])<<0):a}function Z(a){!1===a.i&&
(t.push(a),a.i=!0,!1!==a.D.autoplay&&a.play());return this}function O(a){if(!0===a.i){a._cancel();var b=t.indexOf(a);-1<b&&t.splice(b,1);b=F.indexOf(a);-1<b&&F.splice(b,1);a.i=!1}return this}var P=Error("Not in timeline list"),aa="mpath posX posY    rotate skewX skewY  scaleX scaleY  anchorX anchorY".split(" "),ia=" translate translate    rotate skewX skewY  scale scale  translate translate".split(" "),S="none url blur brightness contrast drop-shadow grayscale hue-rotate invert opacity saturate sepia".split(" "),
L=window.requestAnimationFrame||window.webkitRequestAnimationFrame||window.mozRequestAnimationFrame||window.oRequestAnimationFrame||window.msRequestAnimationFrame||null;L||(L=function(a){window.setTimeout(a,16)});var R={d:97,fill:48,fillOpacity:16,filter:80,height:33,opacity:16,offsetDistance:33,stroke:48,strokeDasharray:64,strokeDashoffset:32,strokeOpacity:16,strokeWidth:32,transform:1,width:33},ba=window.getComputedStyle(document.documentElement),C=!1,u=(new Date).getTime(),x,U=0,t=[],F=[];Y.prototype=
{v:function(a){var b=0;if(null!==this.c){var c=this.j();0<this.b&&null!==c&&c>=this.f?this.h?(this.c=u-this.g/this.b,this.h--,b=2):(b=1,a?this.a=c:this.a=this.o?Math.max(this.o,this.f):this.f):0>this.b&&null!==c&&c<=this.g?this.h&&Infinity!=this.f?(this.c=u-this.f/this.b,this.h--,b=2):(this.h=0,b=1,a?this.a=c:this.a=this.o?Math.min(this.o,this.g):this.g):null!==c&&0!=this.b&&(a&&null!==this.a&&(this.c=u-this.a/this.b),this.a=null)}this.o=this.j();return b},I:function(a){a&&(this.m&&(this.m=!1,null===
this.c&&(0!=this.b&&null!==this.a?(this.c=u-this.a/this.b,this.a=null):this.c=u)),null===this.a&&null!==this.c&&(a=this.v(!1),0!=a&&F.push([this,a])));a=this.j();if(null===a)return!1;for(var b=this.B,c=this.w,d=0;d<b.length;++d){for(var e=b[d],n=!1,k=0;k<c[d].length;++k){var f=c[d][k],h=f[0];if(null!==h){var g=f[2];var q=f[4].length,m=f[4][q-1]-g;g=0==m?f[5][q-1]:a<=g?f[5][0]:a>=g+f[3]?0==f[3]%m?f[5][q-1]:T(f[3]%m,f):T((a-g)%m,f);0==h?(e._ks.mpath=f[8],e._ks.transform[h]=g,n=!0):14>=h?(e._ks.transform[h]=
g,n=!0):(g=da(f[1]&240,g),f[1]&1?e.setAttribute(h,g):e.style[h]=g)}}if(n){X(e);n=e._ks.transform;k="";if(f=e._ks.mpath)g=n[0],0>g&&(g=0),100<g&&(g=100),g=g*f[2]/100,h=f[1].getPointAtLength(g),k="translate("+h.x+","+h.y+") ",f[0]&&(.5>g?(g=h,h=f[1].getPointAtLength(.5)):g=f[1].getPointAtLength(g-.5),k+="rotate("+180*Math.atan2(h.y-g.y,h.x-g.x)/Math.PI+") ");for(f=1;f<n.length;++f)h=n[f],h!=(10==f||11==f?1:0)&&(k+=" "+ia[f]+"(",k=2>=f?k+(1==f?h+",0":"0,"+h):13<=f?k+(13==f?h+",0":"0,"+h):10<=f?k+(10==
f?h+",1":"1,"+h):k+h,k+=")");e.setAttribute("transform",k)}}return"running"==this.l()},H:function(){!1!==this.D.autoremove&&"finished"==this.l()&&O(this)},A:function(){if(!this.C){this.C=!0;for(var a=this.B,b=this.w,c=0;c<a.length;++c)for(var d=a[c],e=0;e<b[c].length;++e)14>=b[c][e][0]&&X(d)}},play:function(a){A(a)&&null!==a&&(H(a),0>this.b&&a<this.g&&(a=this.g),0<this.b&&a>this.f&&(a=this.f),this.u(a,!0));if(!this.i)throw P;a=this.j();if(0<this.b&&(null===a||a>=this.f))this.a=this.g;else if(0>this.b&&
(null===a||a<=this.g)){if(Infinity==this.f)throw Error("Cannot seek to Infinity");this.a=this.f}else 0==this.b&&null===a&&(this.a=this.g);if(null===this.a)return this;this.c=null;this.m=!0;this.A();M();return this},pause:function(a){if(!this.i)throw P;A(a)&&H(a);if("paused"!=this.l()){K();var b=this.j();if(null===b)if(0<=this.b)this.a=this.g;else{if(Infinity==this.f)throw Error("Cannot seek to Infinity");this.a=this.f}null!==this.c&&null===this.a&&(this.a=b);this.c=null;this.m=!1;this.v(!1);this.A();
M()}A(a)&&this.u(a,!0);return this},range:function(a,b){if(0==arguments.length)return{"in":this.g,out:this.f};var c=+a,d=this.s;A(b)&&(d=+b);H(c);if(0>c||0>d||c>=d||isNaN(d))throw Error("Invalid range");var e=this.l();this.g=c;this.f=d;"finished"==e&&"running"==this.l()&&this.play();return this},loop:function(a){if(!A(a))return{count:this.h};this.h=!0===a?Infinity:Math.floor(a);if(0>this.h||isNaN(this.h))this.h=0;return this},j:function(){return null!==this.a?this.a:null===this.c?null:(u-this.c)*
this.b},u:function(a,b){b&&K();null!==a&&(this.A(),null!==this.a||null===this.c||0==this.b?(this.a=a,N(!1)):this.c=u-a/this.b,this.i||(this.c=null),this.o=null,this.v(!0),M())},F:function(){return this.j()},time:function(a){if(A(a)){if(!this.i)throw P;H(a);this.u(a,!0);return this}return this.F()},l:function(){var a=this.j();return this.m?"running":null===a?"idle":null===this.c?"paused":0<this.b&&a>=this.f||0>this.b&&a<=this.g?"finished":"running"},state:function(){return this.l()},duration:function(){return this.s},
G:function(a){H(a);K();var b=this.j();this.b=a;null!==b&&this.u(b,!1)},rate:function(a){return A(a)?(this.G(a),this):this.b},_cancel:function(){if(!this.i||"idle"==this.l())return this;this.c=this.a=null;this.m=!1;return this}};return{version:"1.0.0",animate:function(){var a={};if(1==arguments.length%2){a=arguments[arguments.length-1];var b={};for(c in a)b[c]=a[c];a=b}var c=new Y(a);a=arguments;for(var d=b=0;d<a.length-1;d+=2){var e=a[d];var n=e instanceof Element?e:document.getElementById(e.substring(1));
if(!n)throw Error("Invalid target: "+e);e=n;n=a[d+1];e._ks||(e._ks={});for(var k=[],f=0;f<n.length;++f){var h=n[f],g=I(h,"p","property");if("string"!=typeof g||-1!=g.indexOf("-")||""===g||!(0<R[g]||0<=aa.indexOf(g)))throw Error("Invalid property: "+g);var q=aa.indexOf(g);""!==g&&0<=q&&(g=q);q=Q(g);var m=I(h,"t","times");if(!m||2>m.length)throw Error("Not enough times");m=m.slice();if(!isFinite(m[0])||0>m[0])throw Error("Invalid time: "+m[0]);for(var B=1;B<m.length;++B)if(!isFinite(m[B])||0>m[B]||
m[B]<m[B-1])throw Error("Invalid time: "+m[B]);B=m[0];var u=m[m.length-1]-B,x=h.iterations||0;1>x&&(x=1);u*=x;b<u+B&&(b=u+B);var t=I(h,"v","values");if(!t||t.length!=m.length)throw Error("Values do not match times");t=t.slice();for(var D=g,l=t,w=Q(D)&240,p=0;p<l.length;++p)if(96==w){for(var y=l[p].substring(6,l[p].length-2).match(/[A-DF-Za-df-z][-+0-9eE., ]*/ig),C=[],r=0;r<y.length;++r){C.push(y[r][0]);for(var z=1<y[r].trim().length?y[r].substring(1).split(","):[],G=0;G<z.length;++G)z[G]=parseFloat(z[G]);
C.push(z)}l[p]=C}else if(48==w)v(l[p],"#")?l[p]=parseInt(l[p].substring(1),16):v(l[p],"url(")||"none"==l[p]||(console.warn("unsupported color: "+l[p]),l[p]=0);else if(80==w){y=l;C=p;r=l[p];if("none"==r)r=[0];else{z=[];for(var E=r.indexOf("(");0<E;)if(G=S.indexOf(r.substring(0,E)),0<=G){z.push(G);var F=r.indexOf(") ");0>F&&(F=r.length-1);E=r.substring(E+1,F).split(" ");5==G?(z.push(parseFloat(E[0])),z.push(parseFloat(E[1])),z.push(parseFloat(E[2])),z.push(ha(E[3]))):1==G?z.push(E[0]):z.push(parseFloat(E[0]));
r=r.substring(F+1).trim();E=r.indexOf("(")}else break;r=z}y[C]=r}else 64==w?"none"!=l[p]?/^[0-9 .]*$/.test(l[p])?l[p]=W(l[p]," "):(console.warn("unsupported value: "+l[p]),l[p]=[0]):l[p]=[0]:32==w?(H(l[p]),l[p]=parseFloat(l[p])):0===D&&(l[p]=parseFloat(l[p]));D=I(h,"e","easing");l=m.length;for(D||(D=[]);D.length<l;)D.push([1,0,0,.58,1]);for(l=0;l<D.length;++l)D[l]=fa(D[l]);q=[g,q,B,u,m,t,D,x];m=I(h,"mp","motionPath");A(m)&&0===g&&(q[8]=[],q[8][0]=h.motionRotate,h=document.createElementNS("http://www.w3.org/2000/svg",
"path"),m||(m="M0,0"),h.setAttribute("d",m),q[8][1]=h,q[8][2]=h.getTotalLength());k.push(q)}0<k.length&&(c.B.push(e),c.w.push(k))}c.s=b;c.g=0;c.f=c.s;Z(c);return c},add:Z,remove:O,removeAll:function(){for(var a=t.length-1;0<=a;--a)O(t[a]);return this},timelines:function(){return t.slice()},globalPlay:function(){x&&(U=x-(new Date).getTime(),x=void 0,M());return this},globalPause:function(){x||(x=u,N(!1));return this},globalState:function(){return x?"paused":"running"}}}();
]]></script><script><![CDATA[if(KeyshapeJS.version.indexOf('1.')!=0)throw Error('Expected KeyshapeJS v1.*.*');window.ks=document.ks=KeyshapeJS;(function(ks){
ks.animate("#Path-30",[{p:'mpath',t:[4000,5100,10200,11200],v:['0%','49.998586%','49.999529%','100%'],e:[[1,0.47,0,0.745,0.715],[0],[1,0.47,0,0.745,0.715],[0]],mp:"M286.954,108.482L286.954,2.48336L286.954,2.48136L286.954,108.484"}],
"#_a0",[{p:'mpath',t:[4000,5100,10200,11200],v:['0%','50%','50%','100%'],e:[[1,0.47,0,0.745,0.715],[0],[1,0.47,0,0.745,0.715],[0]],mp:"M277.217,279.513L277.217,165.513L277.217,165.513L277.217,279.513"}],
"#_a1",[{p:'mpath',t:[4000,5100,10200,11200],v:['0%','50%','50%','100%'],e:[[1,0.47,0,0.745,0.715],[0],[1,0.47,0,0.745,0.715],[0]],mp:"M346.08,279.983L346.08,165.483L346.08,165.483L346.08,279.983"}],
"#Bar_2_C",[{p:'mpath',t:[3600,4700,9900,10800],v:['0%','49.999043%','50.030512%','100%'],e:[[1,0.47,0,0.745,0.715],[0],[1,0.47,0,0.745,0.715],[0]],mp:"M384.913,22.9214L385.729,135.738L385.73,135.667L384.913,22.9171"}],
"#_a2",[{p:'mpath',t:[3600,4700,9900,10800],v:['0%','50%','50%','100%'],e:[[1,0.47,0,0.745,0.715],[0],[1,0.47,0,0.745,0.715],[0]],mp:"M383.335,205.737L383.335,325.737L383.335,325.737L383.335,205.737"}],
"#_a3",[{p:'mpath',t:[3600,4700,9900,10800],v:['0%','50.000825%','50.000825%','100%'],e:[[1,0.47,0,0.745,0.715],[1,0.175,0.885,0.32,1],[1,0.47,0,0.745,0.715],[0]],mp:"M452.698,203.717L452.198,325.717L452.198,325.717L452.198,203.72"}],
"#_a4",[{p:'fillOpacity',t:[2400,2900,9200,9700],v:[0.3,1,1,0.3],e:[[0],[0],[0],[0]]}],
"#_a5",[{p:'fillOpacity',t:[2700,3200,8900,9300],v:[0.3,1,1,0.3],e:[[0],[0],[0],[0]]}],
"#_a6",[{p:'fillOpacity',t:[3100,3600,8600,9000],v:[0.3,1,1,0.3],e:[[0],[0],[0],[0]]}],
"#Path-3",[{p:'scaleX',t:[2600,3100],v:[1,1.9],e:[[0],[0]]},{p:'scaleY',t:[2600,3100],v:[1,1.9],e:[[0],[0]]},{p:'opacity',t:[1300,2300,2600,3100],v:[0,0,0.3,0],e:[[0],[0],[0],[0]]},{p:'fill',t:[1300,2300],v:['#001B41','#28cce8'],e:[[0],[0]]}],
"#Path-2",[{p:'scaleX',t:[1900,2400],v:[1,1.9],e:[[0],[0]]},{p:'scaleY',t:[1900,2400],v:[1,1.9],e:[[0],[0]]},{p:'opacity',t:[600,1600,1900,2400],v:[0,0,0.3,0],e:[[0],[0],[0],[0]]},{p:'fill',t:[600,1600],v:['#001B41','#28cce8'],e:[[0],[0]]}],
"#Path-5",[{p:'scaleX',t:[7900,8400],v:[1,1.9],e:[[0],[0]]},{p:'scaleY',t:[7900,8400],v:[1,1.9],e:[[0],[0]]},{p:'opacity',t:[6600,7600,7900,8400],v:[0,0,0.3,0],e:[[0],[0],[0],[0]]},{p:'fill',t:[6600,7600],v:['#001B41','#28cce8'],e:[[0],[0]]}],
"#Path-4",[{p:'scaleX',t:[8600,9100],v:[1,1.9],e:[[0],[0]]},{p:'scaleY',t:[8600,9100],v:[1,1.9],e:[[0],[0]]},{p:'opacity',t:[7300,8300,8600,9100],v:[0,0,0.3,0],e:[[0],[0],[0],[0]]},{p:'fill',t:[7300,8300],v:['#001B41','#28cce8'],e:[[0],[0]]}],
{autoremove:false}).range(0,11500).loop(true);
if(document.location.search.substr(1).split('&').indexOf('global=paused')>=0)ks.globalPause()})(KeyshapeJS);
]]></script></svg>