<svg width="1832" height="889" fill="none" xmlns="http://www.w3.org/2000/svg"><path d="M209.3 75.3A38 38 0 00152 48.7 50.2 50.2 0 00108.6 24 50.8 50.8 0 0058 75.4c-17.9 3-32 18.7-32 37.5 0 21 17.4 38.2 38.4 38.2h139c21 0 38.4-17.1 38.4-38.2 0-19-14.3-34.8-32.5-37.6z" fill="#006572" fill-opacity=".1"/><path d="M1942.8 757.6a65.8 65.8 0 00-99.1-45.9 86.7 86.7 0 00-75-42.7 87.7 87.7 0 00-87.3 88.8 66.5 66.5 0 00-55.4 65 66.4 66.4 0 0066.3 65.8h240.4a66.4 66.4 0 0066.3-65.9 66.5 66.5 0 00-56.2-65zM1107.8 434.6a65.8 65.8 0 00-99.1-45.9 86.7 86.7 0 00-75-42.7 87.7 87.7 0 00-87.3 88.8 66.5 66.5 0 00-55.4 65 66.4 66.4 0 0066.3 65.8h240.4a66.4 66.4 0 0066.3-65.9 66.5 66.5 0 00-56.2-65zM252.3 708.6a52.4 52.4 0 00-79-36.6 69 69 0 00-59.6-34A69.9 69.9 0 0044 708.7 53 53 0 000 760.4c0 29 24 52.5 52.8 52.5h191.4a52.9 52.9 0 0052.8-52.5 53 53 0 00-44.7-51.8zM1534.3 70.6a52.4 52.4 0 00-79-36.6 69 69 0 00-59.6-34 69.9 69.9 0 00-69.6 70v.7a53 53 0 00-44.1 51.7c0 29 24 52.5 52.8 52.5h191.4a52.9 52.9 0 0052.8-52.5 53 53 0 00-44.7-51.8z" fill="#008B9D" fill-opacity=".1"/></svg>