<svg width="768" height="812" viewBox="0 0 768 812" fill="none" xmlns="http://www.w3.org/2000/svg">
<path d="M1299.35 314.596L1197.61 245.749C1095.87 177.933 892.386 38.6909 688.902 12.1317C485.418 -15.4588 170.984 96.5905 -32.5 69C-235.984 42.4409 -328.517 -126.337 -430.259 -194.153L-532 -263V314.596H-430.259C-328.517 314.596 -125.033 314.596 78.4508 314.596C281.935 314.596 485.418 314.596 688.902 314.596C892.386 314.596 1095.87 314.596 1197.61 314.596H1299.35Z" fill="#007A8A"/>
<rect width="1619.36" height="198.525" transform="matrix(-1 0 0 1 1131.95 310.101)" fill="#007A8A"/>
<path d="M1131.95 833.759L1040.26 810.535C948.561 787.311 765.174 740.864 581.786 748.557C398.398 756.83 215.01 817.792 31.6226 802.842C-151.765 787.311 -335.153 694.416 -426.847 647.969L-518.541 601.521V508.627H-426.847C-335.153 508.627 -151.765 508.627 31.6226 508.627C215.01 508.627 398.398 508.627 581.786 508.627C765.174 508.627 948.561 508.627 1040.26 508.627H1131.95V833.759Z" fill="#007A8A"/>
</svg>
