<svg width="768" height="527" viewBox="0 0 768 527" fill="none" xmlns="http://www.w3.org/2000/svg">
<path d="M-17.9071 68.0093C199.277 79.929 596.793 -23.1182 787 6C983.501 51.5 868.207 337.072 664.763 337.072C467.983 337.072 -62.2051 509.147 -62.343 106.665C-62.351 83.4884 -41.0493 66.7392 -17.9071 68.0093Z" fill="#006572"/>
<rect width="768" height="294" transform="matrix(-1 0 0 1 768 92)" fill="#006572"/>
<path d="M746.648 310C796.52 397.106 855.338 436.661 887.631 451.954C923.848 460.133 915.909 465.345 887.631 451.954C873.567 448.778 852.846 445.154 824.073 441.999C628 420.5 -42.3525 610.5 -63.4999 480.5C-246.944 456.903 34.3141 440 -42.3525 323C141.092 323 563.204 310 746.648 310Z" fill="#006572"/>
</svg>
