<svg width="121" height="120" fill="none" xmlns="http://www.w3.org/2000/svg"><ellipse cx="60.6" cy="60" rx="60.3" ry="60" fill="#9C0000"/><path d="M38 69.6c-.4.8-.2 1.7.4 2.3l.4.4 4.9-5.2.4-.3-3-3c-1.8 3.1-2.8 5.3-3 5.8zM54.5 77.9a87 87 0 01-5.2 4.8l.6.6a2 2 0 002.2.4l5.9-3.1-3.2-3.1-.3.4zM53.5 68.1c-1.4-1.4-5.3-.1-7.1 1.7-6.1 6-8.9 10.4-10.1 13-.4.7-.2 1.5.3 2.1a2 2 0 002.2.4c2.5-1.2 6.8-4 13-10.1 2-2 3-5.8 1.7-7zM34.5 53.4L29 58.7c-.7.6-.8 1.6-.4 2.3a2 2 0 002.2 1c3-.9 5.5-1.2 7.2-.7 2.5-4.4 5.1-8.4 8-12-1.7-1.1-7-.5-11.6 4zM60.9 92.8a2 2 0 002.2-.4l5.4-5.3c4.2-4.2 5-9.6 4-11.3-4.1 3-8.3 5.7-12.1 7.8.2 1.5 0 3-.6 7.2 0 .8.3 1.6 1 2zM66.5 47.1a5.7 5.7 0 000 8 5.8 5.8 0 008 0 5.7 5.7 0 000-8 5.8 5.8 0 00-8 0zM93.7 29.9a2 2 0 00-1.8-1.8 38 38 0 00-14 1.6 16 16 0 004.8 9.3 16 16 0 009.5 4.8c1.3-4.4 1.8-9 1.5-14z" fill="#fff"/><path d="M80 41.7A20 20 0 0174.2 31a69.2 69.2 0 00-31.1 29.4l4.3 4.3c3-1.2 6.5-1.5 8.8.7 2.3 2.3 2 5.8.7 8.8l4.5 4.4C72.5 72 85.4 61.4 91 47.4a20 20 0 01-11-5.7zM77.3 58a9.6 9.6 0 01-13.5 0 9.5 9.5 0 010-13.5 9.6 9.6 0 0113.5 0 9.5 9.5 0 010 13.5z" fill="#fff"/></svg>