<svg width="16" height="14" viewBox="0 0 16 14" fill="none" xmlns="http://www.w3.org/2000/svg">
<path d="M16 1.56041C15.4062 1.84408 14.7813 2.00168 14.125 2.09624C14.7813 1.68648 15.3125 1.02457 15.5625 0.268101C14.9063 0.646334 14.2187 0.898494 13.4688 1.05609C12.975 0.52041 12.3192 0.164798 11.6038 0.0448271C10.8885 -0.0751434 10.1539 0.0472845 9.51483 0.392981C8.87573 0.738679 8.36821 1.28816 8.07155 1.95558C7.77485 2.623 7.70576 3.37074 7.87499 4.08197C5.15627 3.9559 2.75 2.63207 1.125 0.614818C0.71225 1.34272 0.585965 2.20056 0.771216 3.01802C0.956468 3.83549 1.43971 4.55282 2.125 5.02757C1.59375 5.02757 1.0625 4.86995 0.625001 4.61781V4.68086C0.625001 6.28833 1.78125 7.61218 3.28125 7.92738C2.79038 8.05456 2.27695 8.06535 1.78125 7.95889C2.21875 9.28271 3.40625 10.2598 4.84373 10.2913C3.46993 11.3705 1.72868 11.8577 0 11.6467C1.4375 12.5923 3.1875 13.1281 5.03126 13.1281C6.29317 13.134 7.54306 12.8803 8.70445 12.3825C9.86585 11.8846 10.9144 11.1531 11.7861 10.2327C12.6576 9.31229 13.334 8.22224 13.7738 7.02917C14.2135 5.83614 14.4075 4.56517 14.3438 3.29399C15 2.82119 15.5625 2.22232 16 1.56041Z" fill="#FDFDFD"/>
</svg>
