<svg width="16" height="12" viewBox="0 0 16 12" fill="none" xmlns="http://www.w3.org/2000/svg">
<path d="M15.3125 1.19228C14.875 0.344415 14.4063 0.208758 13.4688 0.14093C9.82497 -0.0469765 6.17503 -0.0469765 2.53125 0.14093C1.59375 0.208758 1.125 0.344415 0.687499 1.19228C0.21875 2.04014 0 3.46455 0 6.00813C0 8.55171 0.21875 9.97612 0.687499 10.824C1.125 11.6718 1.59375 11.8075 2.53125 11.8753C6.17548 12.0416 9.82452 12.0416 13.4688 11.8753C14.4063 11.8075 14.875 11.6718 15.3125 10.824C15.7813 10.01 16 8.55171 16 6.00813C16 3.46455 15.7813 2.04014 15.3125 1.19228ZM6 9.26392V2.75234L11 6.00813L6 9.26392Z" fill="#FDFDFD"/>
</svg>
