<svg width="1920" height="939" viewBox="0 0 1920 939" fill="none" xmlns="http://www.w3.org/2000/svg">
<g id="bg">
<path id="wiggle" d="M1185.4 165.595C1131.21 92.3396 1136.11 -75 1136.11 -75H2012V442.582C2012 442.582 2003.2 416.825 1956.18 415.624C1863.83 413.266 1792.19 473.494 1707.96 430.451C1604.31 377.483 1635.3 315.304 1541.1 243.097C1431.56 159.131 1270.39 280.491 1185.4 165.595Z" fill="#006572" fill-opacity="0.1"/>
<path id="semiCircle" d="M-187.488 701.111C-185.166 747.108 -164.806 790.335 -130.823 821.419C-96.84 852.503 -51.9733 868.938 -5.95258 867.16C40.0682 865.381 83.5328 845.533 115.016 811.919C146.499 778.305 163.462 733.636 162.227 687.597C160.992 641.559 141.658 597.863 108.418 565.985C75.1783 534.108 30.7121 516.618 -15.3378 517.31C-61.3877 518.001 -105.309 536.818 -137.576 569.679C-169.844 602.541 -187.857 646.797 -187.709 692.852L-136.936 692.689C-137.041 659.997 -124.254 628.58 -101.348 605.253C-78.4425 581.926 -47.2645 568.569 -14.5754 568.078C18.1137 567.587 49.6787 580.002 73.2745 602.631C96.8703 625.26 110.595 656.278 111.471 688.959C112.348 721.64 100.307 753.349 77.9579 777.21C55.6092 801.072 24.7553 815.161 -7.91318 816.424C-40.5816 817.686 -72.4309 806.02 -96.5543 783.954C-120.678 761.889 -135.13 731.203 -136.778 698.552L-187.488 701.111Z" fill="#006572" fill-opacity="0.1"/>
</g>
</svg>
