<svg width="30" height="30" viewBox="0 0 30 30" fill="none" xmlns="http://www.w3.org/2000/svg">
<path d="M30 16.5584C30 13.8531 28.2686 11.6318 26.0825 11.4431C25.8233 10.4747 25.1227 9.71494 24.24 9.45136C23.6514 4.08883 19.7221 0 15 0C10.2779 0 6.34863 4.08883 5.76006 9.45136C4.87734 9.71494 4.17674 10.4747 3.91752 11.4431C3.84158 11.4497 3.76623 11.4587 3.69146 11.4701V5.12987C3.69146 4.59195 3.29795 4.15584 2.81256 4.15584C2.32717 4.15584 1.93365 4.59195 1.93365 5.12987V12.2497C0.771328 13.1643 0 14.7534 0 16.5584C0 19.2638 1.73145 21.4851 3.91746 21.6738C4.17592 22.6391 4.87283 23.3969 5.75162 23.6629C6.12604 26.0781 8.02799 27.9221 10.3125 27.9221H10.5158C10.8835 29.1286 11.9138 30 13.125 30H16.875C18.3935 30 19.6289 28.6309 19.6289 26.9481C19.6289 25.2652 18.3935 23.8961 16.875 23.8961H13.125C11.9138 23.8961 10.8835 24.7675 10.5158 25.974H10.3125C8.98342 25.974 7.8627 24.9678 7.53715 23.6068C8.57121 23.2114 9.31641 22.1227 9.31641 20.8442V12.2727C9.31641 10.9897 8.56605 9.89792 7.52637 9.5061C8.07539 5.20377 11.2263 1.94805 15 1.94805C18.7737 1.94805 21.9246 5.20377 22.4736 9.5061C21.4339 9.89792 20.6836 10.9897 20.6836 12.2727V20.8442C20.6836 22.4554 21.8664 23.7662 23.3203 23.7662H23.5547C24.7485 23.7662 25.759 22.8821 26.0825 21.6738C28.2686 21.4851 30 19.2638 30 16.5584ZM13.125 25.8442H16.875C17.4243 25.8442 17.8711 26.3394 17.8711 26.9481C17.8711 27.5568 17.4243 28.0519 16.875 28.0519H13.125C12.5757 28.0519 12.1289 27.5568 12.1289 26.9481C12.1289 26.3394 12.5757 25.8442 13.125 25.8442ZM1.75781 16.5584C1.75781 15.0138 2.66162 13.6839 3.80859 13.4229V19.6939C2.66162 19.433 1.75781 18.1031 1.75781 16.5584ZM7.55859 20.8442C7.55859 21.3812 7.16432 21.8182 6.67969 21.8182H6.44531C5.96068 21.8182 5.56641 21.3812 5.56641 20.8442C5.56641 17.7186 5.56641 15.1621 5.56641 12.2727C5.56641 11.7356 5.96068 11.2987 6.44531 11.2987H6.67969C7.16432 11.2987 7.55859 11.7356 7.55859 12.2727V20.8442ZM24.4336 20.8442C24.4336 21.3812 24.0393 21.8182 23.5547 21.8182H23.3203C22.8357 21.8182 22.4414 21.3812 22.4414 20.8442V12.2727C22.4414 11.7356 22.8357 11.2987 23.3203 11.2987H23.5547C24.0393 11.2987 24.4336 11.7356 24.4336 12.2727V20.8442ZM26.1914 19.694V13.423C27.3384 13.684 28.2422 15.0139 28.2422 16.5585C28.2422 18.1031 27.3384 19.433 26.1914 19.694Z" fill="#006572"/>
</svg>
