<svg width="1100" height="699" viewBox="0 0 1100 699" fill="none" xmlns="http://www.w3.org/2000/svg">
<g id="desktop-bg">
<path id="semiCircle" d="M-124.92 529.222C-123.262 562.077 -108.719 592.954 -84.4452 615.157C-60.1716 637.359 -28.1239 649.099 4.74803 647.828C37.62 646.558 68.6661 632.381 91.154 608.371C113.642 584.361 125.758 552.454 124.876 519.569C123.994 486.685 110.184 455.473 86.4415 432.704C62.6987 409.934 30.9371 397.442 -1.9557 397.936C-34.8485 398.43 -66.2206 411.87 -89.269 435.342C-112.317 458.815 -125.184 490.427 -125.078 523.323L-88.8113 523.207C-88.8863 499.855 -79.7529 477.414 -63.3917 460.752C-47.0305 444.09 -24.7605 434.549 -1.41113 434.199C21.9383 433.848 44.4847 442.716 61.3388 458.879C78.193 475.043 87.9961 497.198 88.6223 520.542C89.2485 543.886 80.6474 566.535 64.6841 583.579C48.7207 600.623 26.6822 610.687 3.3476 611.588C-19.987 612.49 -42.7365 604.157 -59.9675 588.396C-77.1985 572.635 -87.5218 550.717 -88.6989 527.394L-124.92 529.222Z" fill="#006572" fill-opacity="0.05"/>
<path id="wiggle" d="M632.785 88.2026C591.34 61.3471 595.088 0 595.088 0H1265V189.747C1265 189.747 1258.27 180.304 1222.31 179.864C1151.67 179 1096.88 201.079 1032.46 185.3C953.186 165.882 976.884 143.087 904.837 116.615C821.057 85.8332 697.789 130.324 632.785 88.2026Z" fill="#006572" fill-opacity="0.05"/>
</g>
</svg>
