<svg width="1492" height="1355" viewBox="0 0 1492 1355" fill="none" xmlns="http://www.w3.org/2000/svg">
<g id="dots">
<rect width="1492" height="1355" fill="white"/>
<path id="dotOne" d="M127 170.5C127 180.165 134.835 188 144.5 188C154.165 188 162 180.165 162 170.5C162 160.835 154.165 153 144.5 153C134.835 153 127 160.835 127 170.5Z" fill="#006572" fill-opacity="0.1"/>
<path id="dotFive" d="M955 1303.5C955 1313.16 962.835 1321 972.5 1321C982.165 1321 990 1313.16 990 1303.5C990 1293.84 982.165 1286 972.5 1286C962.835 1286 955 1293.84 955 1303.5Z" fill="#006572" fill-opacity="0.1"/>
<path id="dotSix" d="M190 1130.5C190 1140.16 197.835 1148 207.5 1148C217.165 1148 225 1140.16 225 1130.5C225 1120.84 217.165 1113 207.5 1113C197.835 1113 190 1120.84 190 1130.5Z" fill="#006572" fill-opacity="0.1"/>
<path id="dotTwo" d="M468 752.5C468 762.165 475.835 770 485.5 770C495.165 770 503 762.165 503 752.5C503 742.835 495.165 735 485.5 735C475.835 735 468 742.835 468 752.5Z" fill="#006572" fill-opacity="0.1"/>
<path id="dotThree" d="M1131 327.898C1131 337.563 1138.84 345.398 1148.5 345.398C1158.16 345.398 1166 337.563 1166 327.898C1166 318.233 1158.16 310.398 1148.5 310.398C1138.84 310.398 1131 318.233 1131 327.898Z" fill="#006572" fill-opacity="0.1"/>
<path id="dotFour" d="M1230 853.5C1230 863.165 1237.84 871 1247.5 871C1257.16 871 1265 863.165 1265 853.5C1265 843.835 1257.16 836 1247.5 836C1237.84 836 1230 843.835 1230 853.5Z" fill="#006572" fill-opacity="0.1"/>
</g>
</svg>
