<svg width="1492" height="1355" viewBox="0 0 1492 1355" fill="none" xmlns="http://www.w3.org/2000/svg">
<g id="dots">
<rect width="1492" height="1355" fill="white"/>
<path id="dotOne" d="M226 209.5C226 219.165 233.835 227 243.5 227C253.165 227 261 219.165 261 209.5C261 199.835 253.165 192 243.5 192C233.835 192 226 199.835 226 209.5Z" fill="#006572" fill-opacity="0.1"/>
<path id="dotFour" d="M1282 1233.5C1282 1243.16 1289.84 1251 1299.5 1251C1309.16 1251 1317 1243.16 1317 1233.5C1317 1223.84 1309.16 1216 1299.5 1216C1289.84 1216 1282 1223.84 1282 1233.5Z" fill="#006572" fill-opacity="0.1"/>
<path id="dotFive" d="M226 1062.5C226 1072.16 233.835 1080 243.5 1080C253.165 1080 261 1072.16 261 1062.5C261 1052.84 253.165 1045 243.5 1045C233.835 1045 226 1052.84 226 1062.5Z" fill="#006572" fill-opacity="0.1"/>
<path id="dotTwo" d="M468 752.5C468 762.165 475.835 770 485.5 770C495.165 770 503 762.165 503 752.5C503 742.835 495.165 735 485.5 735C475.835 735 468 742.835 468 752.5Z" fill="#006572" fill-opacity="0.1"/>
<path id="dotThree" d="M1131 327.898C1131 337.563 1138.84 345.398 1148.5 345.398C1158.16 345.398 1166 337.563 1166 327.898C1166 318.233 1158.16 310.398 1148.5 310.398C1138.84 310.398 1131 318.233 1131 327.898Z" fill="#006572" fill-opacity="0.1"/>
</g>
</svg>
