<svg width="303" height="392" viewBox="0 0 303 392" fill="none" xmlns="http://www.w3.org/2000/svg">
<g id="header-circles">
<path id="dotOne" d="M0 10C0 15.5228 4.47715 20 10 20C15.5228 20 20 15.5228 20 10C20 4.47715 15.5228 0 10 0C4.47715 0 0 4.47715 0 10Z" fill="#006572" fill-opacity="0.1"/>
<path id="dotTwo" d="M196 382C196 387.523 200.477 392 206 392C211.523 392 216 387.523 216 382C216 376.477 211.523 372 206 372C200.477 372 196 376.477 196 382Z" fill="#006572" fill-opacity="0.1"/>
<path id="dotThree" d="M283 137C283 142.523 287.477 147 293 147C298.523 147 303 142.523 303 137C303 131.477 298.523 127 293 127C287.477 127 283 131.477 283 137Z" fill="#006572" fill-opacity="0.1"/>
</g>
</svg>
