<svg width="30" height="25" viewBox="0 0 30 25" fill="none" xmlns="http://www.w3.org/2000/svg">
<path d="M27.3633 0H2.63672C1.18465 0 0 1.29462 0 2.88462V22.1154C0 23.7 1.17938 25 2.63672 25H27.3633C28.8117 25 30 23.7097 30 22.1154V2.88462C30 1.3 28.8206 0 27.3633 0ZM26.9992 1.92308L15.0559 14.9893L3.00932 1.92308H26.9992ZM1.75781 21.7172V3.27365L10.2234 12.4557L1.75781 21.7172ZM3.00076 23.0769L11.4717 13.8096L14.4398 17.029C14.7834 17.4017 15.3379 17.4004 15.6801 17.026L18.5742 13.8598L26.9992 23.0769H3.00076ZM28.2422 21.7171L19.8172 12.5L28.2422 3.28282V21.7171Z" fill="#006572"/>
</svg>
