<svg width="375" height="538" viewBox="0 0 375 538" fill="none" xmlns="http://www.w3.org/2000/svg">
<g id="mobile-bg">
<path id="semiCircle" d="M-90.8992 462.338C-89.8467 483.192 -80.6162 502.79 -65.2095 516.882C-49.8027 530.974 -29.4617 538.424 -8.5975 537.618C12.2667 536.812 31.972 527.814 46.2453 512.575C60.5186 497.336 68.2092 477.084 67.6493 456.211C67.0893 435.339 58.3241 415.529 43.2542 401.077C28.1844 386.624 8.02499 378.695 -12.8524 379.009C-33.7299 379.322 -53.6421 387.853 -68.2712 402.752C-82.9002 417.65 -91.0667 437.714 -90.9996 458.594L-67.9806 458.52C-68.0282 443.698 -62.2312 429.455 -51.8465 418.879C-41.4619 408.304 -27.3269 402.248 -12.5068 402.026C2.31334 401.803 16.6238 407.431 27.3213 417.691C38.0188 427.95 44.241 442.012 44.6384 456.829C45.0359 471.645 39.5767 486.021 29.4446 496.839C19.3125 507.657 5.32437 514.045 -9.48637 514.617C-24.2971 515.19 -38.7364 509.9 -49.6732 499.897C-60.6099 489.893 -67.1622 475.981 -67.9093 461.178L-90.8992 462.338Z" fill="#006572" fill-opacity="0.05"/>
<path id="wiggle" d="M176.298 44.4286C158.421 20.2445 160.038 -35 160.038 -35H449V135.872C449 135.872 446.096 127.368 430.585 126.972C400.118 126.194 376.483 146.077 348.696 131.867C314.501 114.38 324.723 93.8528 293.646 70.0148C257.508 42.2948 204.337 82.3597 176.298 44.4286Z" fill="#006572" fill-opacity="0.05"/>
</g>
</svg>
