<svg width="271" height="700" viewBox="0 0 271 700" fill="none" xmlns="http://www.w3.org/2000/svg">
<path d="M599.483 351.245C599.683 285.452 573.939 222.232 527.835 175.295C481.73 128.359 418.981 101.488 353.195 100.511C287.41 99.5345 223.891 124.53 176.413 170.077C128.935 215.625 101.326 278.052 99.5726 343.822C97.8194 409.591 122.063 473.401 167.047 521.413C212.031 569.425 274.128 597.77 339.872 600.299C405.617 602.828 469.708 579.339 518.248 534.925C566.788 490.511 595.863 428.753 599.168 363.043L526.726 359.399C524.379 406.044 503.74 449.884 469.283 481.412C434.827 512.94 389.331 529.614 342.661 527.819C295.992 526.023 251.911 505.902 219.979 471.82C188.046 437.738 170.836 392.442 172.081 345.755C173.326 299.067 192.924 254.752 226.627 222.42C260.33 190.087 305.42 172.344 352.119 173.037C398.818 173.731 443.361 192.805 476.089 226.124C508.817 259.443 527.091 304.32 526.949 351.024L599.483 351.245Z" fill="#006572" fill-opacity="0.1"/>
</svg>
