<svg width="768" height="764" viewBox="0 0 768 764" fill="none" xmlns="http://www.w3.org/2000/svg">
<g id="tablet-bg">
<path id="semiCircle" d="M-159.92 594.222C-158.262 627.077 -143.719 657.954 -119.445 680.157C-95.1716 702.359 -63.1239 714.099 -30.252 712.828C2.61998 711.558 33.6661 697.381 56.154 673.371C78.6419 649.361 90.7585 617.454 89.8763 584.569C88.9941 551.685 75.1843 520.473 51.4415 497.704C27.6987 474.934 -4.06291 462.442 -36.9557 462.936C-69.8485 463.43 -101.221 476.87 -124.269 500.342C-147.317 523.815 -160.184 555.427 -160.078 588.323L-123.811 588.207C-123.886 564.855 -114.753 542.414 -98.3917 525.752C-82.0305 509.09 -59.7605 499.549 -36.4111 499.199C-13.0617 498.848 9.48467 507.716 26.3388 523.879C43.193 540.043 52.9961 562.198 53.6223 585.542C54.2485 608.886 45.6474 631.535 29.6841 648.579C13.7207 665.623 -8.31779 675.687 -31.6524 676.588C-54.987 677.49 -77.7365 669.157 -94.9675 653.396C-112.198 637.635 -122.522 615.717 -123.699 592.394L-159.92 594.222Z" fill="#006572" fill-opacity="0.05"/>
<path id="wiggle" d="M348.438 83.1229C316.148 57.814 319.069 0 319.069 0H841V178.819C841 178.819 835.755 169.92 807.738 169.506C752.708 168.691 710.018 189.499 659.828 174.628C598.064 156.328 616.528 134.846 560.395 109.899C495.122 80.8899 399.083 122.818 348.438 83.1229Z" fill="#006572" fill-opacity="0.05"/>
</g>
</svg>
