<svg width="37" height="37" viewBox="0 0 37 37" fill="none" xmlns="http://www.w3.org/2000/svg">
<path d="M26.7101 0H10.2899C4.59763 0 0 4.59763 0 10.2899V26.7101C0 32.4024 4.59763 37 10.2899 37H26.7101C32.4024 37 37 32.4024 37 26.7101V10.2899C37 4.59763 32.4024 0 26.7101 0ZM33.716 26.7101C33.716 30.6509 30.6509 33.716 26.7101 33.716H10.2899C6.34911 33.716 3.28402 30.6509 3.28402 26.7101V10.2899C3.28402 6.34911 6.34911 3.28402 10.2899 3.28402H26.7101C30.6509 3.28402 33.716 6.34911 33.716 10.2899V26.7101Z" fill="#FDFDFD"/>
<path d="M18.6096 8.97604C17.2379 8.76746 15.8373 8.85766 14.5037 9.24046C13.1701 9.62327 11.9349 10.2896 10.8826 11.194C9.83038 12.0983 8.9859 13.2193 8.40697 14.4802C7.82804 15.7411 7.52832 17.1122 7.52832 18.4997C7.52832 19.8872 7.82804 21.2583 8.40697 22.5192C8.9859 23.7801 9.83038 24.9011 10.8826 25.8054C11.9349 26.7098 13.1701 27.3761 14.5037 27.7589C15.8373 28.1417 17.2379 28.2319 18.6096 28.0234C20.8873 27.677 22.9655 26.5258 24.4672 24.7785C25.9689 23.0313 26.7946 20.8036 26.7946 18.4997C26.7946 16.1958 25.9689 13.9682 24.4672 12.2209C22.9655 10.4736 20.8873 9.32238 18.6096 8.97604ZM18.6096 24.7393C17.6924 24.9119 16.7485 24.8801 15.845 24.6463C14.9416 24.4125 14.1007 23.9824 13.3824 23.3867C12.6641 22.7909 12.0859 22.0441 11.6891 21.1994C11.2923 20.3547 11.0866 19.4329 11.0866 18.4997C11.0866 17.5665 11.2923 16.6447 11.6891 15.8C12.0859 14.9553 12.6641 14.2085 13.3824 13.6128C14.1007 13.017 14.9416 12.5869 15.845 12.3531C16.7485 12.1193 17.6924 12.0875 18.6096 12.2601C20.0643 12.5337 21.3776 13.3071 22.3226 14.4464C23.2676 15.5858 23.7848 17.0195 23.7848 18.4997C23.7848 19.9799 23.2676 21.4136 22.3226 22.553C21.3776 23.6923 20.0643 24.4657 18.6096 24.7393ZM28.4616 6.12988C27.8229 6.12988 27.2104 6.38361 26.7587 6.83525C26.3071 7.28689 26.0534 7.89945 26.0534 8.53817C26.0534 8.85443 26.1157 9.16759 26.2367 9.45978C26.3577 9.75196 26.5351 10.0175 26.7587 10.2411C27.2104 10.6927 27.8229 10.9465 28.4616 10.9465C29.1185 10.9465 29.7753 10.7275 30.2131 10.2896C30.4517 10.0645 30.6417 9.79306 30.7716 9.49188C30.9015 9.1907 30.9685 8.86616 30.9685 8.53817C30.9685 8.21017 30.9015 7.88564 30.7716 7.58446C30.6417 7.28328 30.4517 7.01181 30.2131 6.78669C29.7753 6.34882 29.1185 6.12988 28.4616 6.12988Z" fill="#FDFDFD"/>
</svg>
