<svg width="39" height="32" viewBox="0 0 39 32" fill="none" xmlns="http://www.w3.org/2000/svg">
<path d="M39 3.80349C37.5527 4.49495 36.0293 4.87909 34.4297 5.10958C36.0293 4.1108 37.3242 2.49739 37.9336 0.653496C36.334 1.57544 34.6582 2.19008 32.8301 2.57422C31.6265 1.2685 30.028 0.401695 28.2843 0.109266C26.5407 -0.183162 24.7501 0.115256 23.1924 0.957891C21.6346 1.80053 20.3975 3.1399 19.6744 4.76673C18.9512 6.39356 18.7828 8.21619 19.1953 9.94981C12.5684 9.6425 6.70312 6.41568 2.74219 1.49862C1.73611 3.27289 1.42829 5.36386 1.87984 7.35643C2.33139 9.349 3.50929 11.0975 5.17969 12.2547C3.88477 12.2547 2.58984 11.8705 1.52344 11.2559V11.4096C1.52344 15.3278 4.3418 18.5547 7.99805 19.323C6.80154 19.633 5.55007 19.6593 4.3418 19.3998C5.4082 22.6266 8.30273 25.0083 11.8066 25.0851C8.45796 27.7156 4.21365 28.9032 0 28.3888C3.50391 30.6937 7.76953 31.9998 12.2637 31.9998C15.3396 32.0142 18.3862 31.3957 21.2171 30.1823C24.048 28.9688 26.6039 27.1858 28.7285 24.9422C30.853 22.6987 32.5017 20.0417 33.5736 17.1336C34.6455 14.2256 35.1183 11.1276 34.9629 8.02909C36.5625 6.87665 37.9336 5.4169 39 3.80349Z" fill="#FDFDFD"/>
</svg>
