<svg width="46" height="40" viewBox="0 0 46 40" fill="none" xmlns="http://www.w3.org/2000/svg">
<path d="M44.0234 3.97426C42.7656 1.14805 41.418 0.695861 38.7227 0.469765C28.2468 -0.156588 17.7532 -0.156588 7.27734 0.469765C4.58203 0.695861 3.23437 1.14805 1.97656 3.97426C0.628906 6.80046 0 11.5485 0 20.0271C0 28.5057 0.628906 33.2537 1.97656 36.0799C3.23437 38.9061 4.58203 39.3583 7.27734 39.5844C17.7545 40.1385 28.2455 40.1385 38.7227 39.5844C41.418 39.3583 42.7656 38.9061 44.0234 36.0799C45.3711 33.3668 46 28.5057 46 20.0271C46 11.5485 45.3711 6.80046 44.0234 3.97426ZM17.25 30.8797V9.17447L31.625 20.0271L17.25 30.8797Z" fill="#FDFDFD"/>
</svg>
